<svg width="32" height="32" viewBox="0 0 32 32" fill="none" xmlns="http://www.w3.org/2000/svg">
    <g clip-path="url(#clip0_78_77)">
        <path d="M0 9.6C0 6.23969 0 4.55953 0.653961 3.27606C1.2292 2.14708 2.14708 1.2292 3.27606 0.653961C4.55953 0 6.23969 0 9.6 0H22.4C25.7603 0 27.4405 0 28.7239 0.653961C29.8529 1.2292 30.7708 2.14708 31.346 3.27606C32 4.55953 32 6.23969 32 9.6V22.4C32 25.7603 32 27.4405 31.346 28.7239C30.7708 29.8529 29.8529 30.7708 28.7239 31.346C27.4405 32 25.7603 32 22.4 32H9.6C6.23969 32 4.55953 32 3.27606 31.346C2.14708 30.7708 1.2292 29.8529 0.653961 28.7239C0 27.4405 0 25.7603 0 22.4V9.6Z"
              fill="white"/>
        <g filter="url(#filter0_d_78_77)">
            <path d="M3 14.6039C3 12.6423 3 11.6616 3.38174 10.9124C3.71753 10.2533 4.25334 9.71753 4.91236 9.38174C5.66157 9 6.64234 9 8.60389 9H21.8019C23.0097 9 23.6136 9 24.1515 9.17878C24.6273 9.33693 25.0636 9.59541 25.4309 9.93673C25.8461 10.3226 26.1363 10.8522 26.7166 11.9115L27.4814 13.3076C28.0201 14.2909 28.2894 14.7826 28.3951 15.3026C28.4886 15.7628 28.4886 16.2372 28.3951 16.6974C28.2894 17.2174 28.0201 17.7091 27.4814 18.6924L26.7166 20.0885C26.1363 21.1478 25.8461 21.6774 25.4309 22.0633C25.0636 22.4046 24.6273 22.6631 24.1515 22.8212C23.6136 23 23.0097 23 21.8019 23H8.60389C6.64234 23 5.66157 23 4.91236 22.6183C4.25334 22.2825 3.71753 21.7467 3.38174 21.0876C3 20.3384 3 19.3577 3 17.3961V14.6039Z"
                  fill="#FAE74D"/>
            <path d="M10.1637 17.3257H14.7534V15.9698H10.1637V17.3257Z" fill="#232429"/>
            <path d="M14.7538 20.5596L14.7538 15.9699L13.3979 15.9699L13.3979 20.5596L14.7538 20.5596Z" fill="#232429"/>
            <path d="M10.0408 18.8419C11.3696 18.8419 12.6292 17.6601 12.6292 15.9701H14.324C14.324 18.4922 12.4063 20.5368 10.0408 20.5368C7.67519 20.5368 5.75751 18.4922 5.75751 15.9701C5.75751 13.448 7.67519 11.4034 10.0408 11.4034C11.9389 11.4034 13.5487 12.7198 14.1107 14.543H12.2902C11.8273 13.6518 10.9503 13.0982 10.0408 13.0982C8.7119 13.0982 7.45237 14.2801 7.45237 15.9701C7.45237 17.6601 8.7119 18.8419 10.0408 18.8419Z"
                  fill="#232429"/>
            <path d="M17.7225 16.0129C17.7225 16.3797 17.7632 16.7384 17.8447 17.0889C17.9344 17.4312 18.073 17.741 18.2604 18.0181C18.4479 18.2953 18.6924 18.5194 18.994 18.6906C19.2956 18.8536 19.6624 18.9351 20.0944 18.9351C20.5265 18.9351 20.8933 18.8536 21.1949 18.6906C21.4964 18.5194 21.741 18.2953 21.9285 18.0181C22.1159 17.741 22.2504 17.4312 22.3319 17.0889C22.4216 16.7384 22.4664 16.3797 22.4664 16.0129C22.4664 15.6298 22.4216 15.2589 22.3319 14.9003C22.2504 14.5416 22.1159 14.2237 21.9285 13.9466C21.741 13.6613 21.4964 13.4372 21.1949 13.2741C20.8933 13.103 20.5265 13.0174 20.0944 13.0174C19.6624 13.0174 19.2956 13.103 18.994 13.2741C18.6924 13.4372 18.4479 13.6613 18.2604 13.9466C18.073 14.2237 17.9344 14.5416 17.8447 14.9003C17.7632 15.2589 17.7225 15.6298 17.7225 16.0129ZM15.8029 16.0129C15.8029 15.3608 15.9007 14.7576 16.0963 14.2034C16.2919 13.6409 16.5731 13.1519 16.9399 12.7362C17.3067 12.3204 17.7551 11.9944 18.2849 11.758C18.8229 11.5216 19.4261 11.4034 20.0944 11.4034C20.771 11.4034 21.3742 11.5216 21.904 11.758C22.4338 11.9944 22.8821 12.3204 23.249 12.7362C23.6158 13.1519 23.897 13.6409 24.0926 14.2034C24.2882 14.7576 24.386 15.3608 24.386 16.0129C24.386 16.6487 24.2882 17.2438 24.0926 17.798C23.897 18.3442 23.6158 18.821 23.249 19.2286C22.8821 19.6361 22.4338 19.9581 21.904 20.1945C21.3742 20.4227 20.771 20.5368 20.0944 20.5368C19.4261 20.5368 18.8229 20.4227 18.2849 20.1945C17.7551 19.9581 17.3067 19.6361 16.9399 19.2286C16.5731 18.821 16.2919 18.3442 16.0963 17.798C15.9007 17.2438 15.8029 16.6487 15.8029 16.0129Z"
                  fill="#232429"/>
        </g>
        <g style="mix-blend-mode:color">
            <rect width="32" height="32" fill="#8F96A8"/>
        </g>
    </g>
    <defs>
        <filter id="filter0_d_78_77" x="-17" y="-11" width="65.4653" height="54" filterUnits="userSpaceOnUse"
                color-interpolation-filters="sRGB">
            <feFlood flood-opacity="0" result="BackgroundImageFix"/>
            <feColorMatrix in="SourceAlpha" type="matrix" values="0 0 0 0 0 0 0 0 0 0 0 0 0 0 0 0 0 0 127 0"
                           result="hardAlpha"/>
            <feOffset/>
            <feGaussianBlur stdDeviation="10"/>
            <feComposite in2="hardAlpha" operator="out"/>
            <feColorMatrix type="matrix" values="0 0 0 0 0 0 0 0 0 0 0 0 0 0 0 0 0 0 0.12 0"/>
            <feBlend mode="normal" in2="BackgroundImageFix" result="effect1_dropShadow_78_77"/>
            <feBlend mode="normal" in="SourceGraphic" in2="effect1_dropShadow_78_77" result="shape"/>
        </filter>
        <clipPath id="clip0_78_77">
            <path d="M0 9.6C0 6.23969 0 4.55953 0.653961 3.27606C1.2292 2.14708 2.14708 1.2292 3.27606 0.653961C4.55953 0 6.23969 0 9.6 0H22.4C25.7603 0 27.4405 0 28.7239 0.653961C29.8529 1.2292 30.7708 2.14708 31.346 3.27606C32 4.55953 32 6.23969 32 9.6V22.4C32 25.7603 32 27.4405 31.346 28.7239C30.7708 29.8529 29.8529 30.7708 28.7239 31.346C27.4405 32 25.7603 32 22.4 32H9.6C6.23969 32 4.55953 32 3.27606 31.346C2.14708 30.7708 1.2292 29.8529 0.653961 28.7239C0 27.4405 0 25.7603 0 22.4V9.6Z"
                  fill="white"/>
        </clipPath>
    </defs>
</svg>
