<svg width="20" height="20" viewBox="0 0 20 20" fill="none" xmlns="http://www.w3.org/2000/svg">
<path fill-rule="evenodd" clip-rule="evenodd" d="M2.87868 0.87868C3.44129 0.31607 4.20435 0 5 0C5.79565 0 6.55871 0.31607 7.12132 0.87868C7.68393 1.44129 8 2.20435 8 3C8 3.79565 7.68393 4.55871 7.12132 5.12132C6.55871 5.68393 5.79565 6 5 6C4.20435 6 3.44129 5.68393 2.87868 5.12132C2.31607 4.55871 2 3.79565 2 3C2 2.20435 2.31607 1.44129 2.87868 0.87868ZM5 2C4.73478 2 4.48043 2.10536 4.29289 2.29289C4.10536 2.48043 4 2.73478 4 3C4 3.26522 4.10536 3.51957 4.29289 3.70711C4.48043 3.89464 4.73478 4 5 4C5.26522 4 5.51957 3.89464 5.70711 3.70711C5.89464 3.51957 6 3.26522 6 3C6 2.73478 5.89464 2.48043 5.70711 2.29289C5.51957 2.10536 5.26522 2 5 2ZM12.8787 0.87868C13.4413 0.31607 14.2044 0 15 0C15.7956 0 16.5587 0.31607 17.1213 0.87868C17.6839 1.44129 18 2.20435 18 3C18 3.79565 17.6839 4.55871 17.1213 5.12132C16.5587 5.68393 15.7956 6 15 6C14.2044 6 13.4413 5.68393 12.8787 5.12132C12.3161 4.55871 12 3.79565 12 3C12 2.20435 12.3161 1.44129 12.8787 0.87868ZM15 2C14.7348 2 14.4804 2.10536 14.2929 2.29289C14.1054 2.48043 14 2.73478 14 3C14 3.26522 14.1054 3.51957 14.2929 3.70711C14.4804 3.89464 14.7348 4 15 4C15.2652 4 15.5196 3.89464 15.7071 3.70711C15.8946 3.51957 16 3.26522 16 3C16 2.73478 15.8946 2.48043 15.7071 2.29289C15.5196 2.10536 15.2652 2 15 2ZM3 9C2.73478 9 2.48043 9.10536 2.29289 9.29289C2.10536 9.48043 2 9.73478 2 10V11C2 11.5523 1.55228 12 1 12C0.447715 12 0 11.5523 0 11V10C0 9.20435 0.31607 8.44129 0.87868 7.87868C1.44129 7.31607 2.20435 7 3 7H5C5.55228 7 6 7.44772 6 8C6 8.55228 5.55228 9 5 9H3ZM14 8C14 7.44772 14.4477 7 15 7H17C17.7957 7 18.5587 7.31607 19.1213 7.87868C19.6839 8.44129 20 9.20435 20 10V11C20 11.5523 19.5523 12 19 12C18.4477 12 18 11.5523 18 11V10C18 9.73478 17.8946 9.48043 17.7071 9.29289C17.5196 9.10536 17.2652 9 17 9H15C14.4477 9 14 8.55228 14 8ZM7.87868 8.87868C8.44129 8.31607 9.20435 8 10 8C10.7957 8 11.5587 8.31607 12.1213 8.87868C12.6839 9.44129 13 10.2043 13 11C13 11.7957 12.6839 12.5587 12.1213 13.1213C11.5587 13.6839 10.7957 14 10 14C9.20435 14 8.44129 13.6839 7.87868 13.1213C7.31607 12.5587 7 11.7957 7 11C7 10.2043 7.31607 9.44129 7.87868 8.87868ZM10 10C9.73478 10 9.48043 10.1054 9.29289 10.2929C9.10536 10.4804 9 10.7348 9 11C9 11.2652 9.10536 11.5196 9.29289 11.7071C9.48043 11.8946 9.73478 12 10 12C10.2652 12 10.5196 11.8946 10.7071 11.7071C10.8946 11.5196 11 11.2652 11 11C11 10.7348 10.8946 10.4804 10.7071 10.2929C10.5196 10.1054 10.2652 10 10 10ZM8 17C7.73478 17 7.48043 17.1054 7.29289 17.2929C7.10536 17.4804 7 17.7348 7 18V19C7 19.5523 6.55228 20 6 20C5.44772 20 5 19.5523 5 19V18C5 17.2043 5.31607 16.4413 5.87868 15.8787C6.44129 15.3161 7.20435 15 8 15H12C12.7957 15 13.5587 15.3161 14.1213 15.8787C14.6839 16.4413 15 17.2043 15 18V19C15 19.5523 14.5523 20 14 20C13.4477 20 13 19.5523 13 19V18C13 17.7348 12.8946 17.4804 12.7071 17.2929C12.5196 17.1054 12.2652 17 12 17H8Z" fill="#D80913"/>
</svg>
