<svg width="22" height="20" viewBox="0 0 22 20" fill="none" xmlns="http://www.w3.org/2000/svg">
<path fill-rule="evenodd" clip-rule="evenodd" d="M8.40146 2.003C9.55613 0.00298798 12.4438 0.00298798 13.5985 2.003L20.9526 14.7512C22.1059 16.751 20.6624 19.25 18.355 19.25H3.64499C1.33702 19.25 -0.107243 16.7514 1.04733 14.7512C1.04738 14.7511 1.04729 14.7513 1.04733 14.7512L8.40146 2.003ZM9.70051 2.75298L2.34664 15.5008C1.76945 16.5005 2.49104 17.75 3.64499 17.75H18.355C19.5076 17.75 20.23 16.5008 19.6533 15.5007L12.2995 2.75298C11.7221 1.75299 10.2778 1.75299 9.70051 2.75298ZM11 7.24999C11.4142 7.24999 11.75 7.58578 11.75 7.99999V11.75C11.75 12.1642 11.4142 12.5 11 12.5C10.5858 12.5 10.25 12.1642 10.25 11.75V7.99999C10.25 7.58578 10.5858 7.24999 11 7.24999ZM10.25 14.75C10.25 14.3358 10.5858 14 11 14H11.007C11.4212 14 11.757 14.3358 11.757 14.75V14.758C11.757 15.1722 11.4212 15.508 11.007 15.508H11C10.5858 15.508 10.25 15.1722 10.25 14.758V14.75Z" fill="#D80913"/>
</svg>
