<svg xmlns="http://www.w3.org/2000/svg" width="259" height="198" viewBox="0 0 259 198" fill="none">
    <g style="mix-blend-mode:luminosity" opacity="0.4">
        <path d="M95.2065 -3.76955C58.314 33.1322 58.909 66.4629 95.2065 103.365C131.504 139.671 165.421 140.267 202.314 103.365C239.206 66.4629 238.611 33.1322 202.314 -3.76955C183.868 -22.2204 166.611 -31.1483 148.76 -31.1483C130.909 -31.7435 113.653 -22.2204 95.2065 -3.76955ZM50.5785 147.409C17.2562 114.078 0 81.9379 0 49.7976V49.2024C0 17.0621 16.6611 -15.0782 50.5785 -48.4088C84.4958 -82.3347 116.628 -99 148.165 -99H148.76C180.892 -99 213.025 -81.7395 246.347 -48.4088C313.587 18.8477 314.182 80.1523 246.347 148.004C213.025 181.335 180.892 198 148.76 198C116.033 198 83.9007 181.335 50.5785 147.409Z" fill="url(#paint0_linear_4491_34138)"/>
    </g>
    <defs>
        <linearGradient id="paint0_linear_4491_34138" x1="76.5" y1="-21" x2="205.056" y2="201.968" gradientUnits="userSpaceOnUse">
            <stop stop-color="#0073FF"/>
            <stop offset="1" stop-color="#00DEFF"/>
        </linearGradient>
    </defs>
</svg>