<svg width="24" height="20" viewBox="0 0 24 20" fill="none" xmlns="http://www.w3.org/2000/svg">
<path fill-rule="evenodd" clip-rule="evenodd" d="M10.4744 0.384492C10.9218 0.132738 11.4266 0.000488281 11.94 0.000488281C12.4534 0.000488281 12.9582 0.132738 13.4057 0.384492C13.8531 0.636246 14.2282 0.999015 14.4947 1.43784L14.4979 1.44304L22.9209 15.503L22.9292 15.5171C23.1899 15.969 23.3279 16.4813 23.3293 17.003C23.3307 17.5248 23.1955 18.0378 22.9372 18.491C22.6788 18.9443 22.3064 19.3221 21.8568 19.5868C21.4072 19.8515 20.8961 19.9939 20.3745 19.9999L20.363 20L3.50659 20C2.98489 19.994 2.47385 19.8515 2.02426 19.5868C1.57466 19.3221 1.20219 18.9443 0.943867 18.491C0.685541 18.0378 0.550362 17.5248 0.551769 17.003C0.553176 16.4813 0.69112 15.969 0.951887 15.5171L0.96015 15.5031L9.3853 1.43783C9.65183 0.999005 10.0269 0.636246 10.4744 0.384492ZM11.94 2.00049C11.7701 2.00049 11.6031 2.04425 11.4551 2.12755C11.3077 2.21044 11.1841 2.32971 11.096 2.47396L2.6808 16.5226C2.59669 16.6707 2.55222 16.838 2.55176 17.0084C2.5513 17.181 2.59602 17.3508 2.6815 17.5008C2.76697 17.6508 2.89022 17.7758 3.03898 17.8633C3.18639 17.9501 3.35377 17.9972 3.52475 18H20.3563C20.5273 17.9972 20.6946 17.9501 20.8421 17.8633C20.9908 17.7758 21.1141 17.6508 21.1995 17.5008C21.285 17.3508 21.3297 17.181 21.3293 17.0084C21.3288 16.8381 21.2844 16.6707 21.2003 16.5227L12.7853 2.47608C12.7849 2.47537 12.7845 2.47467 12.784 2.47397C12.6959 2.32972 12.5723 2.21044 12.425 2.12755C12.2769 2.04425 12.1099 2.00049 11.94 2.00049ZM12 5.99996C12.5523 5.99996 13 6.44767 13 6.99996V11C13 11.5522 12.5523 12 12 12C11.4477 12 11 11.5522 11 11V6.99996C11 6.44767 11.4477 5.99996 12 5.99996ZM11 15C11 14.4477 11.4477 14 12 14H12.01C12.5623 14 13.01 14.4477 13.01 15C13.01 15.5522 12.5623 16 12.01 16H12C11.4477 16 11 15.5522 11 15Z" fill="#354052"/>
</svg>
