<svg width="169" height="20" viewBox="0 0 169 20" fill="none" xmlns="http://www.w3.org/2000/svg">
<path fill-rule="evenodd" clip-rule="evenodd" d="M169 19.2499H152.272V15.5946L162.457 4.77835H152.644V0.750048H168.702V4.40537L158.517 15.2216H169V19.2499ZM145.399 16.2661H144.878C144.134 17.9817 142.424 19.5483 139.041 19.5483C134.953 19.5483 131.867 16.6018 131.867 11.7904V0.750048H136.551V11.3427C136.551 13.9163 138.037 15.4455 140.714 15.4455C143.725 15.4455 145.324 13.5806 145.324 10.2983V0.750048H150.008V19.2499H145.399V16.2661ZM127.519 19.7721C125.512 19.7721 123.987 18.3174 123.987 16.2287C123.987 14.14 125.512 12.6855 127.519 12.6855C129.525 12.6855 131.05 14.14 131.05 16.2287C131.05 18.3174 129.526 19.7721 127.519 19.7721ZM114.105 7.79941L114.738 7.87401C120.648 8.58268 122.841 10.1119 122.841 13.506C122.841 17.1239 119.458 19.7721 114.552 19.7721C109.459 19.7721 106.861 17.1612 105.151 14.5503L108.641 12.2006C109.794 14.625 112.284 15.893 114.663 15.893C116.558 15.893 118.306 15.0725 118.306 13.6179C118.306 12.2379 116.41 11.9768 114.403 11.753L113.771 11.6784C108.604 11.0816 106.262 9.40321 106.262 5.9718C106.262 2.54038 109.385 0.227875 113.659 0.227875C117.452 0.227875 120.128 1.90628 122.618 4.51715L119.235 7.20264C117.823 5.52422 115.964 4.03231 113.511 4.03231C111.764 4.03231 110.797 4.77824 110.797 5.8972C110.797 7.23991 112.172 7.5756 114.105 7.79941ZM94.9165 19.2499L92.0172 4.77835H91.5712L88.6719 19.2499H81.981L78.3381 0.750048H83.0215L85.215 15.2216H85.6608L88.5602 0.750048H95.0282L97.9276 15.2216H98.374L100.567 0.750048H105.251L101.608 19.2499H94.9165ZM68.8946 15.7439C71.4963 15.7439 72.8715 14.2893 73.5038 12.9838L77.3325 15.2217C76.0685 17.1612 73.9126 19.7721 68.9688 19.7721C63.4672 19.7721 59.4896 15.5947 59.4896 9.85079C59.4896 4.25607 63.3183 0.227875 68.7457 0.227875C74.0985 0.227875 77.7043 3.99498 77.7043 9.55242V11.38H64.2848C64.4706 13.8417 66.2182 15.7439 68.8946 15.7439ZM72.9462 8.09767C72.6116 5.74788 71.1245 4.25596 68.7087 4.25596C66.0694 4.25596 64.6941 5.82249 64.3224 8.09767H72.9462ZM53.0581 8.65712C53.0581 6.08358 51.5712 4.55432 48.8948 4.55432C45.8837 4.55432 44.2855 6.41927 44.2855 9.70147V19.2499H39.6021V0.750048H44.2114V3.73389H44.7314C45.4749 2.01821 47.1849 0.451633 50.5676 0.451633C54.6564 0.451633 57.7421 3.3982 57.7421 8.20966V19.2499H53.0581V8.65712Z" fill="#52618F"/>
<path fill-rule="evenodd" clip-rule="evenodd" d="M37.3595 19.2499H20.632V15.5946L30.8171 4.77836H21.0037V0.750061H37.062V4.40539L26.8769 15.2216H37.3595V19.2499ZM13.5305 16.2661H13.01C12.2664 17.9817 10.5566 19.5483 7.17424 19.5483C3.08531 19.5483 0 16.6018 0 11.7904V0.750061H4.68367V11.3427C4.68367 13.9163 6.17056 15.4455 8.84695 15.4455C11.8579 15.4455 13.4563 13.5806 13.4563 10.2984V0.750061H18.14V19.2499H13.5305V16.2661Z" fill="#A2BCDE"/>
</svg>
