<svg width="133" height="112" viewBox="0 0 133 112" fill="none" xmlns="http://www.w3.org/2000/svg">
<path fill-rule="evenodd" clip-rule="evenodd" d="M118.531 93.0366L119.53 93.1548C128.873 94.2772 132.341 96.6993 132.341 102.075C132.341 107.805 126.992 112 119.237 112C111.186 112 107.079 107.865 104.376 103.729L109.893 100.008C111.715 103.847 115.652 105.856 119.413 105.856C122.409 105.856 125.171 104.556 125.171 102.252C125.171 100.067 122.174 99.6532 119.001 99.2986L118.003 99.1804C109.835 98.2352 106.132 95.5768 106.132 90.1419C106.132 84.7069 111.069 81.0441 117.826 81.0441C123.821 81.0441 128.052 83.7025 131.988 87.8379L126.64 92.0914C124.408 89.433 121.469 87.0699 117.591 87.0699C114.829 87.0699 113.301 88.2514 113.301 90.0237C113.301 92.1504 115.475 92.6821 118.531 93.0366ZM88.1965 111.173L83.6131 88.2516H82.9082L78.3248 111.173H67.7475L61.9888 81.8712H69.3925L72.8599 104.793H73.5647L78.1483 81.8712H88.3732L92.9566 104.793H93.6623L97.1288 81.8712H104.533L98.7747 111.173H88.1965ZM47.0601 105.62C51.1729 105.62 53.3469 103.316 54.3465 101.248L60.3991 104.793C58.4008 107.865 54.9928 112 47.1773 112C38.4801 112 32.1922 105.383 32.1922 96.2857C32.1922 87.4243 38.2448 81.0441 46.8247 81.0441C55.2867 81.0441 60.9868 87.0108 60.9868 95.8132V98.7079H39.7727C40.0664 102.607 42.8291 105.62 47.0601 105.62ZM53.465 93.509C52.936 89.7872 50.5851 87.4242 46.7662 87.4242C42.5939 87.4242 40.4197 89.9054 39.8321 93.509H53.465ZM22.0251 94.3951C22.0251 90.3189 19.6744 87.8967 15.4435 87.8967C10.6834 87.8967 8.15702 90.8506 8.15702 96.0492V111.173H0.753174V81.8712H8.0398V86.5973H8.86183C10.0372 83.8798 12.7404 81.3986 18.088 81.3986C24.5517 81.3986 29.4297 86.0656 29.4297 93.6864V111.173H22.0251V94.3951Z" fill="white"/>
<path fill-rule="evenodd" clip-rule="evenodd" d="M132.125 65.1785H73.3039V52.3001L109.119 14.1924H74.6109V0H131.078V12.8784L95.2634 50.9861H132.125V65.1785ZM48.3319 54.6659H46.5018C43.887 60.7105 37.8746 66.2296 25.9808 66.2296C11.6024 66.2296 0.753174 55.8487 0.753174 38.8971V0H17.2229V37.3198C17.2229 46.3872 22.4514 51.7747 31.8627 51.7747C42.4506 51.7747 48.0711 45.2044 48.0711 33.6404V0H64.541V65.1785H48.3319V54.6659Z" fill="#A2BCDE"/>
</svg>
