<svg width="24" height="24" viewBox="0 0 24 24" fill="none" xmlns="http://www.w3.org/2000/svg">
<g id="Group">
<path id="Shape" d="M4 6C4 4.89543 4.89543 4 6 4H11M4 6C4 7.10457 4.89543 8 6 8H12M4 6V18C4 19.1046 4.89543 20 6 20H18C18.5523 20 19 19.5523 19 19V16" stroke="#B2B7D0" stroke-width="1.6" stroke-linecap="round" stroke-linejoin="round"/>
<path id="Shape_2" d="M16.7 8.50977C16.7 8.95159 17.0582 9.30977 17.5 9.30977C17.9418 9.30977 18.3 8.95159 18.3 8.50977H16.7ZM18.3 1.50977C18.3 1.06794 17.9418 0.709766 17.5 0.709766C17.0582 0.709766 16.7 1.06794 16.7 1.50977H18.3ZM19.9343 5.07545C20.2467 5.38787 20.7533 5.38787 21.0657 5.07545C21.3781 4.76303 21.3781 4.2565 21.0657 3.94408L19.9343 5.07545ZM17.5 1.50977L18.0657 0.94408C17.7533 0.631661 17.2467 0.631661 16.9343 0.94408L17.5 1.50977ZM13.9343 3.94408C13.6219 4.2565 13.6219 4.76303 13.9343 5.07545C14.2467 5.38787 14.7533 5.38787 15.0657 5.07545L13.9343 3.94408ZM18.3 8.50977V1.50977H16.7V8.50977H18.3ZM21.0657 3.94408L18.0657 0.94408L16.9343 2.07545L19.9343 5.07545L21.0657 3.94408ZM16.9343 0.94408L13.9343 3.94408L15.0657 5.07545L18.0657 2.07545L16.9343 0.94408Z" fill="#0077FF"/>
<path id="Path" d="M20 12V16H16C14.8954 16 14 15.1046 14 14C14 12.8954 14.8954 12 16 12H20" stroke="#B2B7D0" stroke-width="1.6" stroke-linecap="round" stroke-linejoin="round"/>
</g>
</svg>
