<svg xmlns="http://www.w3.org/2000/svg" width="24" height="24" viewBox="0 0 24 24" fill="none">
    <path d="M4 6C4 4.89543 4.89543 4 6 4H11M4 6C4 7.10457 4.89543 8 6 8H12M4 6V18C4 19.1046 4.89543 20 6 20H18C18.5523 20 19 19.5523 19 19V16" stroke="#25242A" stroke-width="1.6" stroke-linecap="round" stroke-linejoin="round"/>
    <path d="M16.7 1.51001C16.7 1.06818 17.0582 0.71001 17.5 0.71001C17.9418 0.71001 18.3 1.06818 18.3 1.51001H16.7ZM18.3 8.51001C18.3 8.95184 17.9418 9.31001 17.5 9.31001C17.0582 9.31001 16.7 8.95184 16.7 8.51001H18.3ZM19.9343 4.94432C20.2467 4.6319 20.7533 4.6319 21.0657 4.94432C21.3781 5.25674 21.3781 5.76328 21.0657 6.0757L19.9343 4.94432ZM17.5 8.51001L18.0657 9.0757C17.7533 9.38811 17.2467 9.38811 16.9343 9.0757L17.5 8.51001ZM13.9343 6.0757C13.6219 5.76328 13.6219 5.25674 13.9343 4.94432C14.2467 4.6319 14.7533 4.6319 15.0657 4.94432L13.9343 6.0757ZM18.3 1.51001V8.51001H16.7V1.51001H18.3ZM21.0657 6.0757L18.0657 9.0757L16.9343 7.94432L19.9343 4.94432L21.0657 6.0757ZM16.9343 9.0757L13.9343 6.0757L15.0657 4.94432L18.0657 7.94432L16.9343 9.0757Z" fill="#0073FF"/>
    <path d="M20 12V16H16C14.8954 16 14 15.1046 14 14C14 12.8954 14.8954 12 16 12H20" stroke="#25242A" stroke-width="1.6" stroke-linecap="round" stroke-linejoin="round"/>
</svg>