<svg xmlns="http://www.w3.org/2000/svg" width="24" height="24" viewBox="0 0 24 24" fill="none">
    <path d="M4 6C4 4.89543 4.89543 4 6 4H11M4 6C4 7.10457 4.89543 8 6 8H12M4 6V18C4 19.1046 4.89543 20 6 20H18C18.5523 20 19 19.5523 19 19V16" stroke="#B2B7D0" stroke-width="1.6" stroke-linecap="round" stroke-linejoin="round"/>
    <path d="M16.7 8.51001C16.7 8.95184 17.0582 9.31001 17.5 9.31001C17.9418 9.31001 18.3 8.95184 18.3 8.51001H16.7ZM18.3 1.51001C18.3 1.06818 17.9418 0.71001 17.5 0.71001C17.0582 0.71001 16.7 1.06818 16.7 1.51001H18.3ZM19.9343 5.0757C20.2467 5.38811 20.7533 5.38811 21.0657 5.0757C21.3781 4.76328 21.3781 4.25674 21.0657 3.94432L19.9343 5.0757ZM17.5 1.51001L18.0657 0.944324C17.7533 0.631905 17.2467 0.631905 16.9343 0.944324L17.5 1.51001ZM13.9343 3.94432C13.6219 4.25674 13.6219 4.76328 13.9343 5.0757C14.2467 5.38811 14.7533 5.38811 15.0657 5.0757L13.9343 3.94432ZM18.3 8.51001V1.51001H16.7V8.51001H18.3ZM21.0657 3.94432L18.0657 0.944324L16.9343 2.0757L19.9343 5.0757L21.0657 3.94432ZM16.9343 0.944324L13.9343 3.94432L15.0657 5.0757L18.0657 2.0757L16.9343 0.944324Z" fill="#0073FF"/>
    <path d="M20 12V16H16C14.8954 16 14 15.1046 14 14C14 12.8954 14.8954 12 16 12H20" stroke="#B2B7D0" stroke-width="1.6" stroke-linecap="round" stroke-linejoin="round"/>
</svg>