<svg width="300" height="300" viewBox="0 0 300 300" fill="none" xmlns="http://www.w3.org/2000/svg">
    <path d="M0 133.046C0 109.928 0 98.3685 4.49721 89.5385C8.45307 81.7715 14.7652 75.4566 22.5291 71.4991C31.3553 67 42.9096 67 66.0181 67H221.5C235.729 67 242.844 67 249.18 69.107C254.786 70.971 259.926 74.0173 264.253 78.04C269.145 82.5874 272.563 88.8295 279.399 101.314L288.41 117.768C294.756 129.357 297.929 135.152 299.174 141.28C300.275 146.705 300.275 152.295 299.174 157.72C297.929 163.848 294.756 169.643 288.41 181.232L279.399 197.686C272.563 210.17 269.145 216.413 264.253 220.96C259.926 224.983 254.786 228.029 249.18 229.893C242.844 232 235.729 232 221.5 232H66.0181C42.9096 232 31.3553 232 22.5291 227.501C14.7652 223.543 8.45307 217.229 4.49721 209.461C0 200.631 0 189.072 0 165.954V133.046Z" fill="#FAE74D"/>
    <path d="M84.4001 165.127H138.47V149.147H84.4001V165.127Z" fill="#232429"/>
    <path d="M138.47 203.239L138.47 149.146L122.496 149.146L122.496 203.239L138.47 203.239Z" fill="#232429"/>
    <path d="M82.9462 182.994C98.6013 182.994 113.439 169.066 113.439 149.148H133.406C133.406 178.873 110.815 202.969 82.9462 202.969C55.0779 202.969 32.4861 178.873 32.4861 149.148C32.4861 119.423 55.0779 95.3262 82.9462 95.3262C105.308 95.3262 124.272 110.841 130.894 132.329H109.447C103.992 121.826 93.6606 115.301 82.9462 115.301C67.2911 115.301 52.4529 129.23 52.4529 149.148C52.4529 169.066 67.2911 182.994 82.9462 182.994Z" fill="#232429"/>
    <path d="M173.442 149.652C173.442 153.975 173.922 158.202 174.883 162.333C175.939 166.368 177.571 170.019 179.78 173.285C181.989 176.551 184.87 179.193 188.423 181.21C191.976 183.132 196.297 184.092 201.386 184.092C206.476 184.092 210.797 183.132 214.35 181.21C217.903 179.193 220.784 176.551 222.992 173.285C225.201 170.019 226.785 166.368 227.746 162.333C228.802 158.202 229.33 153.975 229.33 149.652C229.33 145.137 228.802 140.766 227.746 136.539C226.785 132.312 225.201 128.565 222.992 125.299C220.784 121.937 217.903 119.295 214.35 117.374C210.797 115.356 206.476 114.348 201.386 114.348C196.297 114.348 191.976 115.356 188.423 117.374C184.87 119.295 181.989 121.937 179.78 125.299C177.571 128.565 175.939 132.312 174.883 136.539C173.922 140.766 173.442 145.137 173.442 149.652ZM150.828 149.652C150.828 141.967 151.98 134.858 154.285 128.325C156.59 121.697 159.902 115.933 164.224 111.033C168.545 106.134 173.826 102.291 180.068 99.5051C186.406 96.7191 193.512 95.3262 201.386 95.3262C209.356 95.3262 216.462 96.7191 222.704 99.5051C228.946 102.291 234.227 106.134 238.549 111.033C242.87 115.933 246.183 121.697 248.487 128.325C250.792 134.858 251.944 141.967 251.944 149.652C251.944 157.146 250.792 164.158 248.487 170.691C246.183 177.128 242.87 182.747 238.549 187.551C234.227 192.354 228.946 196.149 222.704 198.935C216.462 201.625 209.356 202.97 201.386 202.97C193.512 202.97 186.406 201.625 180.068 198.935C173.826 196.149 168.545 192.354 164.224 187.551C159.902 182.747 156.59 177.128 154.285 170.691C151.98 164.158 150.828 157.146 150.828 149.652Z" fill="#232429"/>
</svg>
