<svg width="18" height="21" viewBox="0 0 18 21" fill="none" xmlns="http://www.w3.org/2000/svg">
<path fill-rule="evenodd" clip-rule="evenodd" d="M9 2.00031C7.61555 2.00031 6.26219 2.41084 5.11105 3.17999C3.95991 3.94915 3.06271 5.04238 2.53288 6.32144C2.00306 7.6005 1.86441 9.00795 2.13448 10.3658C2.40454 11.7236 3.07115 12.9709 4.05003 13.9498C4.05006 13.9499 4.04999 13.9498 4.05003 13.9498L8.29375 18.1925C8.48126 18.3799 8.73546 18.4851 9.0005 18.4851C9.26554 18.4851 9.51975 18.3799 9.70725 18.1925L13.9499 13.9499C13.9499 13.9499 13.9499 13.9499 13.9499 13.9499C14.9288 12.9709 15.5955 11.7237 15.8655 10.3658C16.1356 9.00795 15.997 7.6005 15.4671 6.32144C14.9373 5.04238 14.0401 3.94915 12.889 3.17999C11.7378 2.41084 10.3845 2.00031 9 2.00031ZM3.99992 1.51705C5.47995 0.528134 7.21999 0.000305176 9 0.000305176C10.78 0.000305176 12.5201 0.528134 14.0001 1.51705C15.4801 2.50596 16.6337 3.91154 17.3149 5.55605C17.9961 7.20056 18.1743 9.01013 17.8271 10.7559C17.4799 12.5018 16.6228 14.1054 15.3641 15.3641L11.1211 19.6071C10.5586 20.1691 9.79563 20.4851 9.0005 20.4851C8.20538 20.4851 7.44278 20.1694 6.88025 19.6075L2.63598 15.3642C1.37735 14.1055 0.520132 12.5018 0.172903 10.7559C-0.174327 9.01013 0.00393033 7.20056 0.685133 5.55605C1.36633 3.91154 2.51989 2.50596 3.99992 1.51705ZM6.17157 6.17159C6.92172 5.42144 7.93913 5.00002 9 5.00002C10.0609 5.00002 11.0783 5.42144 11.8284 6.17159C12.5786 6.92173 13 7.93915 13 9.00002C13 10.0609 12.5786 11.0783 11.8284 11.8284C11.0783 12.5786 10.0609 13 9 13C7.93913 13 6.92172 12.5786 6.17157 11.8284C5.42143 11.0783 5 10.0609 5 9.00002C5 7.93915 5.42143 6.92173 6.17157 6.17159ZM9 7.00002C8.46957 7.00002 7.96086 7.21073 7.58579 7.5858C7.21071 7.96087 7 8.46958 7 9.00002C7 9.53045 7.21071 10.0392 7.58579 10.4142C7.96086 10.7893 8.46957 11 9 11C9.53043 11 10.0391 10.7893 10.4142 10.4142C10.7893 10.0392 11 9.53045 11 9.00002C11 8.46958 10.7893 7.96087 10.4142 7.5858C10.0391 7.21073 9.53043 7.00002 9 7.00002Z" fill="black"/>
</svg>
