<svg width="20" height="20" viewBox="0 0 20 20" fill="none" xmlns="http://www.w3.org/2000/svg">
<path d="M18.5021 3.44829H1.49785C0.670586 3.44829 0 4.11887 0 4.94614V15.0539C0 15.8811 0.670586 16.5518 1.49785 16.5518H18.5021C19.3294 16.5518 20 15.8812 20 15.0539V4.94614C20 4.11887 19.3294 3.44829 18.5021 3.44829Z" fill="#41479B"/>
<path d="M19.9793 4.69852C19.8612 3.98918 19.245 3.44824 18.5021 3.44824H18.1124L11.7241 7.63367V3.44828H8.27586V7.63371L1.88758 3.44828H1.49785C0.755 3.44828 0.138789 3.98918 0.0207422 4.69855L5.48082 8.2759H0V11.7242H5.48082L0.0207422 15.3014C0.138789 16.0108 0.755 16.5517 1.49785 16.5517H1.88758L8.27586 12.3663V16.5517H11.7241V12.3663L18.1124 16.5517H18.5021C19.245 16.5517 19.8612 16.0108 19.9793 15.3014L14.5192 11.7241H20V8.27582H14.5192L19.9793 4.69852Z" fill="#F5F5F5"/>
<path d="M11.0345 3.44829H8.96551V8.96551H0V11.0345H8.96551V16.5517H11.0345V11.0345H20V8.96551H11.0345V3.44829Z" fill="#FF4B55"/>
<path d="M0.968455 16.4552L8.25685 11.7241H6.99013L0.360291 16.0277C0.522517 16.2171 0.730994 16.3654 0.968455 16.4552Z" fill="#FF4B55"/>
<path d="M13.5308 11.7241H12.264L19.3233 16.3064C19.5208 16.1766 19.6856 16.0014 19.8032 15.7956L13.5308 11.7241Z" fill="#FF4B55"/>
<path d="M0.158142 4.27637L6.31947 8.27587H7.58619L0.60447 3.74384C0.417009 3.88337 0.263611 4.06579 0.158142 4.27637Z" fill="#FF4B55"/>
<path d="M12.9908 8.27586L19.6328 3.96433C19.4688 3.77562 19.2587 3.62812 19.0196 3.54012L11.7241 8.27586H12.9908Z" fill="#FF4B55"/>
</svg>
