<svg width="20" height="20" viewBox="0 0 20 20" fill="none" xmlns="http://www.w3.org/2000/svg">
<path d="M18.5021 3.44828H1.49785C0.670586 3.44828 0 4.11887 0 4.94613V7.42812H20V4.94613C20 4.11887 19.3294 3.44828 18.5021 3.44828Z" fill="#82AFFF"/>
<path d="M0 15.0539C0 15.8811 0.670586 16.5517 1.49785 16.5517H18.5021C19.3294 16.5517 20 15.8811 20 15.0539V12.5719H0V15.0539Z" fill="#73AF00"/>
<path d="M20 7.97266H0V12.027H20V7.97266Z" fill="#F5F5F5"/>
<path d="M0 7.81609V7.97273H20V7.81609V7.42809H0V7.81609Z" fill="#FF4B55"/>
<path d="M0 12.1839V12.5719H20V12.1839V12.0273H0V12.1839Z" fill="#FF4B55"/>
<path d="M4.43326 6.72153C3.72732 6.72153 3.15509 6.15067 3.15509 5.44727C3.15509 4.74129 3.72728 4.16785 4.43326 4.16785C4.43599 4.16785 4.43865 4.16785 4.44131 4.16789C4.48287 4.16844 4.49744 4.11325 4.4608 4.0936C4.24341 3.97707 3.99533 3.91114 3.73158 3.91305C2.88689 3.91907 2.20076 4.61903 2.20974 5.46371C2.21857 6.29969 2.90201 6.97637 3.74263 6.97637C4.00275 6.97637 4.24736 6.91055 4.46205 6.79563C4.49857 6.77606 4.48381 6.72086 4.4424 6.72145C4.43927 6.72153 4.43627 6.72153 4.43326 6.72153Z" fill="#F5F5F5"/>
<path d="M5.43409 6.36914L5.37702 6.54031L5.19659 6.54168C5.17324 6.54184 5.16355 6.57168 5.18234 6.58555L5.32749 6.69274L5.27304 6.86477C5.26601 6.88703 5.29136 6.90547 5.31038 6.89188L5.45718 6.78696L5.60398 6.89188C5.623 6.90547 5.64831 6.88703 5.64132 6.86477L5.58687 6.69274L5.73199 6.58555C5.75077 6.57168 5.74109 6.54184 5.71773 6.54168L5.5373 6.54031L5.48023 6.36914C5.47284 6.34699 5.44152 6.34699 5.43409 6.36914Z" fill="#F5F5F5"/>
<path d="M6.70534 6.36914L6.64826 6.54031L6.46784 6.54168C6.44448 6.54184 6.43479 6.57168 6.45358 6.58555L6.59869 6.69274L6.54424 6.86477C6.53721 6.88703 6.56256 6.90547 6.58159 6.89188L6.72838 6.78696L6.87518 6.89188C6.8942 6.90547 6.91952 6.88703 6.91252 6.86477L6.85807 6.69274L7.00319 6.58555C7.02198 6.57168 7.01229 6.54184 6.98893 6.54168L6.8085 6.54031L6.75143 6.36914C6.74405 6.34699 6.71268 6.34699 6.70534 6.36914Z" fill="#F5F5F5"/>
<path d="M7.97651 6.36914L7.91944 6.54031L7.73901 6.54168C7.71565 6.54184 7.70597 6.57168 7.72476 6.58555L7.86991 6.69274L7.81546 6.86477C7.80843 6.88703 7.83378 6.90547 7.8528 6.89188L7.9996 6.78696L8.1464 6.89188C8.16542 6.90547 8.19073 6.88703 8.18374 6.86477L8.12929 6.69274L8.27441 6.58555C8.29319 6.57168 8.28351 6.54184 8.26015 6.54168L8.07972 6.54031L8.02265 6.36914C8.01526 6.34699 7.9839 6.34699 7.97651 6.36914Z" fill="#F5F5F5"/>
<path d="M9.24769 6.36914L9.19062 6.54031L9.01019 6.54168C8.98683 6.54184 8.97715 6.57168 8.99594 6.58555L9.14105 6.69274L9.0866 6.86477C9.07957 6.88703 9.10492 6.90547 9.12394 6.89188L9.27074 6.78696L9.41754 6.89188C9.43656 6.90547 9.46187 6.88703 9.45488 6.86477L9.40043 6.69274L9.54555 6.58555C9.56433 6.57168 9.55465 6.54184 9.53129 6.54168L9.35086 6.54031L9.29379 6.36914C9.28644 6.34699 9.25508 6.34699 9.24769 6.36914Z" fill="#F5F5F5"/>
<path d="M10.5189 6.36914L10.4618 6.54031L10.2814 6.54168C10.258 6.54184 10.2483 6.57168 10.2671 6.58555L10.4123 6.69274L10.3578 6.86477C10.3508 6.88703 10.3761 6.90547 10.3952 6.89188L10.542 6.78696L10.6888 6.89188C10.7078 6.90547 10.7331 6.88703 10.7261 6.86477L10.6716 6.69274L10.8168 6.58555C10.8356 6.57168 10.8259 6.54184 10.8025 6.54168L10.6221 6.54031L10.565 6.36914C10.5576 6.34699 10.5263 6.34699 10.5189 6.36914Z" fill="#F5F5F5"/>
<path d="M6.70534 5.18274L6.64826 5.35391L6.46784 5.35528C6.44448 5.35543 6.43479 5.38528 6.45358 5.39915L6.59869 5.50633L6.54424 5.67836C6.53721 5.70063 6.56256 5.71907 6.58159 5.70547L6.72838 5.60055L6.87518 5.70547C6.8942 5.71907 6.91952 5.70063 6.91252 5.67836L6.85807 5.50633L7.00319 5.39915C7.02198 5.38528 7.01229 5.35543 6.98893 5.35528L6.8085 5.35391L6.75143 5.18274C6.74405 5.16051 6.71268 5.16051 6.70534 5.18274Z" fill="#F5F5F5"/>
<path d="M7.97651 5.18274L7.91944 5.35391L7.73901 5.35528C7.71565 5.35543 7.70597 5.38528 7.72476 5.39915L7.86991 5.50633L7.81546 5.67836C7.80843 5.70063 7.83378 5.71907 7.8528 5.70547L7.9996 5.60055L8.1464 5.70547C8.16542 5.71907 8.19073 5.70063 8.18374 5.67836L8.12929 5.50633L8.27441 5.39915C8.29319 5.38528 8.28351 5.35543 8.26015 5.35528L8.07972 5.35391L8.02265 5.18274C8.01526 5.16051 7.9839 5.16051 7.97651 5.18274Z" fill="#F5F5F5"/>
<path d="M9.24769 5.18274L9.19062 5.35391L9.01019 5.35528C8.98683 5.35543 8.97715 5.38528 8.99594 5.39915L9.14105 5.50633L9.0866 5.67836C9.07957 5.70063 9.10492 5.71907 9.12394 5.70547L9.27074 5.60055L9.41754 5.70547C9.43656 5.71907 9.46187 5.70063 9.45488 5.67836L9.40043 5.50633L9.54555 5.39915C9.56433 5.38528 9.55465 5.35543 9.53129 5.35528L9.35086 5.35391L9.29379 5.18274C9.28644 5.16051 9.25508 5.16051 9.24769 5.18274Z" fill="#F5F5F5"/>
<path d="M10.5189 5.18274L10.4618 5.35391L10.2814 5.35528C10.258 5.35543 10.2483 5.38528 10.2671 5.39915L10.4123 5.50633L10.3578 5.67836C10.3508 5.70063 10.3761 5.71907 10.3952 5.70547L10.542 5.60055L10.6888 5.70547C10.7078 5.71907 10.7331 5.70063 10.7261 5.67836L10.6716 5.50633L10.8168 5.39915C10.8356 5.38528 10.8259 5.35543 10.8025 5.35528L10.6221 5.35391L10.565 5.18274C10.5576 5.16051 10.5263 5.16051 10.5189 5.18274Z" fill="#F5F5F5"/>
<path d="M7.97651 6.36914L7.91944 6.54031L7.73901 6.54168C7.71565 6.54184 7.70597 6.57168 7.72476 6.58555L7.86991 6.69274L7.81546 6.86477C7.80843 6.88703 7.83378 6.90547 7.8528 6.89188L7.9996 6.78696L8.1464 6.89188C8.16542 6.90547 8.19073 6.88703 8.18374 6.86477L8.12929 6.69274L8.27441 6.58555C8.29319 6.57168 8.28351 6.54184 8.26015 6.54168L8.07972 6.54031L8.02265 6.36914C8.01526 6.34699 7.9839 6.34699 7.97651 6.36914Z" fill="#F5F5F5"/>
<path d="M7.97651 3.99626L7.91944 4.16743L7.73901 4.1688C7.71565 4.16895 7.70597 4.1988 7.72476 4.21266L7.86991 4.31985L7.81546 4.49188C7.80843 4.51415 7.83378 4.53258 7.8528 4.51899L7.9996 4.41407L8.1464 4.51899C8.16542 4.53258 8.19073 4.51415 8.18374 4.49188L8.12929 4.31985L8.27441 4.21266C8.29319 4.1988 8.28351 4.16895 8.26015 4.1688L8.07972 4.16743L8.02265 3.99626C8.01526 3.97411 7.9839 3.97411 7.97651 3.99626Z" fill="#F5F5F5"/>
<path d="M9.24769 6.36914L9.19062 6.54031L9.01019 6.54168C8.98683 6.54184 8.97715 6.57168 8.99594 6.58555L9.14105 6.69274L9.0866 6.86477C9.07957 6.88703 9.10492 6.90547 9.12394 6.89188L9.27074 6.78696L9.41754 6.89188C9.43656 6.90547 9.46187 6.88703 9.45488 6.86477L9.40043 6.69274L9.54555 6.58555C9.56433 6.57168 9.55465 6.54184 9.53129 6.54168L9.35086 6.54031L9.29379 6.36914C9.28644 6.34699 9.25508 6.34699 9.24769 6.36914Z" fill="#F5F5F5"/>
<path d="M10.5189 6.36914L10.4618 6.54031L10.2814 6.54168C10.258 6.54184 10.2483 6.57168 10.2671 6.58555L10.4123 6.69274L10.3578 6.86477C10.3508 6.88703 10.3761 6.90547 10.3952 6.89188L10.542 6.78696L10.6888 6.89188C10.7078 6.90547 10.7331 6.88703 10.7261 6.86477L10.6716 6.69274L10.8168 6.58555C10.8356 6.57168 10.8259 6.54184 10.8025 6.54168L10.6221 6.54031L10.565 6.36914C10.5576 6.34699 10.5263 6.34699 10.5189 6.36914Z" fill="#F5F5F5"/>
<path d="M9.24769 3.99626L9.19062 4.16743L9.01019 4.1688C8.98683 4.16895 8.97715 4.1988 8.99594 4.21266L9.14105 4.31985L9.0866 4.49188C9.07957 4.51415 9.10492 4.53258 9.12394 4.51899L9.27074 4.41407L9.41754 4.51899C9.43656 4.53258 9.46187 4.51415 9.45488 4.49188L9.40043 4.31985L9.54555 4.21266C9.56433 4.1988 9.55465 4.16895 9.53129 4.1688L9.35086 4.16743L9.29379 3.99626C9.28644 3.97411 9.25508 3.97411 9.24769 3.99626Z" fill="#F5F5F5"/>
<path d="M10.5189 3.99626L10.4618 4.16743L10.2814 4.1688C10.258 4.16895 10.2483 4.1988 10.2671 4.21266L10.4123 4.31985L10.3578 4.49188C10.3508 4.51415 10.3761 4.53258 10.3952 4.51899L10.542 4.41407L10.6888 4.51899C10.7078 4.53258 10.7331 4.51415 10.7261 4.49188L10.6716 4.31985L10.8168 4.21266C10.8356 4.1988 10.8259 4.16895 10.8025 4.1688L10.6221 4.16743L10.565 3.99626C10.5576 3.97411 10.5263 3.97411 10.5189 3.99626Z" fill="#F5F5F5"/>
</svg>
