<svg width="32" height="32" viewBox="0 0 32 32" fill="none" xmlns="http://www.w3.org/2000/svg">
    <g clip-path="url(#clip0_4569_73263)">
        <path fill-rule="evenodd" clip-rule="evenodd"
              d="M5.22587 15.9976C5.22587 17.3872 4.28683 18.5558 3 18.9241C3.89432 18.2563 4.47067 17.1858 4.47067 15.9976C4.47067 14.8044 3.89929 13.7437 3 13.0759C4.28187 13.4491 5.22587 14.6178 5.22587 15.9976Z"
              fill="white"/>
        <path fill-rule="evenodd" clip-rule="evenodd"
              d="M8.62474 16.0221C8.62474 18.4969 6.59263 20.4856 4.09349 20.4856C3.90966 20.4856 3.72086 20.4708 3.54199 20.4561C5.7778 20.186 7.51677 18.3005 7.51677 16.0123C7.51677 13.729 5.78277 11.8434 3.54199 11.5685C3.72086 11.5488 3.90966 11.539 4.09349 11.539C6.58766 11.539 8.62474 13.5473 8.62474 16.0221Z"
              fill="white"/>
        <path fill-rule="evenodd" clip-rule="evenodd"
              d="M12.828 15.9926C12.8429 19.9061 9.6382 23.0733 5.67833 23.0733C5.38519 23.0733 5.09205 23.0585 4.79891 23.0144C8.33646 22.5822 11.0741 19.6066 11.0741 15.9975C11.0741 12.3885 8.3315 9.40793 4.79395 8.98074C5.08212 8.94637 5.37526 8.92181 5.67336 8.92181C9.62827 8.92672 12.828 12.0939 12.828 15.9926Z"
              fill="white"/>
        <path fill-rule="evenodd" clip-rule="evenodd"
              d="M17.5974 16.0074C17.5974 21.2614 13.2947 25.5137 7.97839 25.5137C7.58588 25.5137 7.18344 25.494 6.7959 25.44C11.5507 24.8655 15.2324 20.8636 15.2324 16.0074C15.2324 11.1511 11.5507 7.14429 6.7959 6.5796C7.18344 6.5305 7.57595 6.50104 7.97839 6.50104C13.2847 6.50104 17.5974 10.7534 17.5974 16.0074Z"
              fill="white"/>
        <path fill-rule="evenodd" clip-rule="evenodd"
              d="M22.9581 16.0074C22.9581 22.4202 17.6865 27.6153 11.1977 27.6153C10.7108 27.6153 10.2239 27.5858 9.75684 27.5318C15.5749 26.8297 20.0714 21.9341 20.0714 15.9975C20.0714 10.061 15.5749 5.17035 9.75684 4.47309C10.2288 4.41416 10.7108 4.37979 11.1977 4.37979C17.6865 4.37979 22.9581 9.59452 22.9581 16.0074Z"
              fill="white"/>
        <path fill-rule="evenodd" clip-rule="evenodd"
              d="M28.9999 15.9975C28.9999 23.1764 23.1023 28.9951 15.8483 28.9951C15.3018 28.9951 14.7652 28.9754 14.2286 28.9116C20.7274 28.1211 25.7654 22.6412 25.7654 16.0074C25.7654 9.35883 20.7274 3.88385 14.2236 3.09821C14.7602 3.02946 15.3018 3 15.8434 3C23.1023 3 28.9999 8.8187 28.9999 15.9975Z"
              fill="white"/>
    </g>
    <defs>
        <clipPath id="clip0_4569_73263">
            <rect width="26" height="26" fill="white" transform="translate(3 3)"/>
        </clipPath>
    </defs>
</svg>
