<svg width="22" height="22" fill="none" xmlns="http://www.w3.org/2000/svg"><path d="M3.453 2.903c-.219.049-.497.32-.556.54-.03.114-.039.535-.029 1.43.014 1.203.019 1.282.099 1.525.21.642.159.583 2.411 2.843l2.065 2.073.001 3.097c0 2.152.012 3.142.04 3.244.026.091.105.21.211.315l.17.169 2.879.959c1.584.527 2.926.959 2.984.959.319 0 .67-.246.77-.539.052-.152.059-.593.06-3.969l.001-3.797 2.016-2.216c1.895-2.082 2.199-2.444 2.357-2.808.172-.395.182-.492.198-1.842.014-1.132.008-1.316-.045-1.475a.816.816 0 0 0-.572-.512c-.241-.051-14.829-.047-15.06.004m14.074 2.3v.731l-.12.223c-.087.164-.669.828-2.19 2.499-1.14 1.251-2.113 2.344-2.164 2.429l-.091.153-.01 3.453-.01 3.452-1.943-.647-1.942-.647v-2.975c0-2.58-.008-2.996-.057-3.135-.047-.135-.4-.506-2.196-2.306-1.44-1.443-2.168-2.199-2.226-2.31-.081-.154-.087-.211-.098-.907l-.012-.743H17.527v.73" fill-rule="evenodd" fill="#000"/></svg>