<?xml version="1.0" standalone="no"?>
<!DOCTYPE svg PUBLIC "-//W3C//DTD SVG 1.1//EN" "http://www.w3.org/Graphics/SVG/1.1/DTD/svg11.dtd" >
<svg xmlns="http://www.w3.org/2000/svg">
<metadata>Generated by IcoMoon</metadata>
<defs>
<font id="icomoon" horiz-adv-x="1024">
<font-face units-per-em="1024" ascent="960" descent="-64" />
<missing-glyph horiz-adv-x="1024" />
<glyph unicode="&#x20;" horiz-adv-x="512" d="" />
<glyph unicode="&#xe900;" glyph-name="reload" d="M463.872 876.352c-4.834 4.177-8.785 9.276-11.622 14.999s-4.506 11.955-4.902 18.331c-0.397 6.376 0.482 12.767 2.586 18.798s5.389 11.583 9.664 16.328c4.279 4.745 9.459 8.589 15.241 11.306s12.045 4.253 18.428 4.517c6.383 0.264 12.757-0.748 18.743-2.977s11.465-5.632 16.119-10.007l160-144c4.992-4.5 8.981-9.999 11.716-16.14 2.731-6.141 4.143-12.787 4.143-19.508s-1.412-13.367-4.143-19.508c-2.735-6.141-6.724-11.639-11.716-16.14l-160-144c-9.502-8.209-21.841-12.368-34.372-11.585s-24.256 6.445-32.661 15.772c-8.41 9.327-12.826 21.577-12.305 34.122s5.935 24.388 15.083 32.987l82.56 74.304c-62.554 7.52-125.849-5.68-180.183-37.578s-96.709-80.734-120.629-139.022c-23.921-58.289-28.067-122.814-11.803-183.682s52.039-114.726 101.844-153.318c49.804-38.588 110.89-59.785 173.891-60.331 63.006-0.546 124.45 19.58 174.916 57.297 50.466 37.722 87.177 90.948 104.495 151.526s14.293 125.163-8.61 183.859c-2.295 5.875-3.409 12.144-3.281 18.45s1.498 12.524 4.032 18.301c2.53 5.776 6.174 10.998 10.722 15.366 4.553 4.368 9.916 7.797 15.791 10.092s12.143 3.409 18.449 3.281c6.306-0.128 12.527-1.498 18.304-4.029s10.995-6.176 15.364-10.726c4.369-4.55 7.795-9.915 10.091-15.79 29.854-76.467 34.415-160.49 13.018-239.744-21.397-79.249-67.631-149.559-131.913-200.61-64.286-51.051-143.236-80.158-225.276-83.055-82.035-2.893-162.843 20.578-230.564 66.974s-118.792 113.271-145.722 190.818c-26.929 77.547-28.3 161.681-3.909 240.064s73.257 146.886 139.431 195.461c66.175 48.576 146.176 74.666 228.262 74.445l-49.28 44.352z" />
<glyph unicode="&#xe901;" glyph-name="vertical-settings" d="M821.206 960c-26.612 0-48.188-21.575-48.188-48.188v-62.243h-7.023c-27.425 0-53.73-10.895-73.12-30.286s-30.286-45.693-30.286-73.118v-165.647c0-27.425 10.897-53.726 30.286-73.118s45.694-30.286 73.12-30.286h7.023v-448.755c0-26.612 21.576-48.188 48.188-48.188 26.618 0 48.188 21.576 48.188 48.188v448.755h7.029c27.425 0 53.724 10.895 73.12 30.286 19.39 19.392 30.286 45.693 30.286 73.118v165.647c0 27.425-10.897 53.726-30.286 73.118-19.396 19.392-45.694 30.286-73.12 30.286h-7.029v62.243c0 26.614-21.57 48.188-48.188 48.188zM876.424 753.192c1.861 0 3.65-0.74 4.969-2.058s2.060-3.106 2.060-4.969v-165.647c0-1.864-0.741-3.651-2.060-4.969s-3.108-2.058-4.969-2.058h-110.429c-1.867 0-3.65 0.74-4.969 2.058s-2.060 3.106-2.060 4.969v165.647c0 1.864 0.741 3.651 2.060 4.969s3.102 2.058 4.969 2.058h110.429zM489.914 960c-26.613 0-48.188-21.575-48.188-48.188v-503.969h-7.027c-27.425 0-53.726-10.894-73.118-30.286s-30.286-45.69-30.286-73.115v-165.647c0-27.425 10.894-53.73 30.286-73.12s45.693-30.286 73.118-30.286h7.027v-7.029c0-26.612 21.575-48.188 48.188-48.188s48.188 21.576 48.188 48.188v7.029h7.028c27.425 0 53.726 10.897 73.12 30.286 19.39 19.39 30.286 45.694 30.286 73.12v165.647c0 27.425-10.897 53.724-30.286 73.115-19.394 19.392-45.695 30.286-73.12 30.286h-7.028v503.969c0 26.614-21.574 48.188-48.188 48.188zM545.129 311.465c1.864 0 3.651-0.741 4.969-2.054 1.318-1.319 2.059-3.108 2.059-4.969v-165.647c0-1.867-0.741-3.656-2.059-4.969-1.317-1.319-3.105-2.060-4.969-2.060h-110.431c-1.864 0-3.651 0.741-4.969 2.060-1.318 1.313-2.058 3.102-2.058 4.969v165.647c0 1.861 0.74 3.65 2.058 4.969 1.318 1.313 3.105 2.054 4.969 2.054h110.431zM158.619 960c-26.614 0-48.188-21.575-48.188-48.188v-7.027h-7.027c-27.425 0-53.726-10.894-73.118-30.286s-30.286-45.693-30.286-73.117v-220.863c0-27.425 10.894-53.726 30.286-73.118s45.693-30.286 73.118-30.286h7.027v-448.755c0-26.612 21.574-48.188 48.188-48.188s48.188 21.576 48.188 48.188v448.755h7.028c27.425 0 53.726 10.895 73.118 30.286s30.286 45.693 30.286 73.118v220.863c0 27.424-10.895 53.725-30.286 73.117s-45.693 30.286-73.118 30.286h-7.028v7.027c0 26.614-21.574 48.188-48.188 48.188zM213.835 808.408c1.864 0 3.651-0.74 4.969-2.058s2.058-3.105 2.058-4.969v-220.863c0-1.864-0.741-3.651-2.058-4.969s-3.106-2.058-4.969-2.058h-110.431c-1.864 0-3.651 0.74-4.969 2.058s-2.058 3.106-2.058 4.969v220.863c0 1.864 0.74 3.651 2.058 4.969s3.105 2.058 4.969 2.058h110.431z" />
<glyph unicode="&#xe902;" glyph-name="briefcase" horiz-adv-x="1069" d="M430.377 848.696h207.766c15.747 0 30.845-6.254 41.975-17.387 11.135-11.133 17.39-26.232 17.39-41.976v-59.363h-326.494v59.363c0 15.744 6.254 30.843 17.387 41.976s26.232 17.387 41.976 17.387zM786.552 729.971h111.304c39.357 0 77.107-15.636 104.938-43.467s43.467-65.579 43.467-104.939v-206.808c0.013-0.619 0.013-1.233 0-1.848v-258.823c0-39.362-15.636-77.107-43.467-104.938s-65.581-43.467-104.938-43.467h-727.19c-39.36 0-77.107 15.636-104.939 43.467s-43.467 65.576-43.467 104.938v258.818c-0.013 0.619-0.013 1.233 0 1.852v206.808c0 39.359 15.636 77.107 43.467 104.939s65.579 43.467 104.939 43.467h111.304v59.363c0 39.359 15.636 77.107 43.467 104.939s65.579 43.467 104.939 43.467h207.766c39.362 0 77.107-15.636 104.942-43.467 27.831-27.831 43.467-65.579 43.467-104.939v-59.363zM170.667 640.927c-15.744 0-30.843-6.254-41.976-17.387s-17.387-26.232-17.387-41.976v-179.93c132.225-62.148 276.632-94.444 422.957-94.444s290.731 32.296 422.957 94.444v179.93c0 15.744-6.255 30.843-17.386 41.976-11.135 11.133-26.232 17.387-41.975 17.387h-727.19zM957.217 304.124c-133.57-56.641-277.393-85.976-422.957-85.976s-289.388 29.335-422.957 85.976v-190.037c0-15.743 6.254-30.845 17.387-41.975 11.132-11.135 26.231-17.386 41.976-17.386h727.19c15.743 0 30.84 6.251 41.975 17.386 11.13 11.13 17.386 26.232 17.386 41.975v190.037zM534.261 470.261c-24.589 0-44.522-19.932-44.522-44.522v-0.521c0-24.589 19.932-44.522 44.522-44.522s44.522 19.932 44.522 44.522v0.521c0 24.589-19.932 44.522-44.522 44.522z" />
<glyph unicode="&#xe903;" glyph-name="arrows-right-left" d="M792.171 902.438c17.386 17.387 45.577 17.387 62.963 0l155.826-155.826c17.386-17.387 17.386-45.576 0-62.964l-155.826-155.826c-17.386-17.387-45.577-17.387-62.963 0s-17.386 45.576 0 62.964l79.823 79.823h-827.472c-24.589 0-44.522 19.933-44.522 44.522s19.933 44.522 44.522 44.522h827.472l-79.823 79.823c-17.386 17.387-17.386 45.577 0 62.963zM231.83 383.016c17.387-17.386 17.387-45.577 0-62.963l-79.823-79.823h827.472c24.589 0 44.522-19.932 44.522-44.522s-19.932-44.522-44.522-44.522h-827.472l79.823-79.823c17.387-17.386 17.387-45.572 0-62.963-17.387-17.386-45.576-17.386-62.964 0l-155.826 155.826c-17.387 17.386-17.387 45.577 0 62.963l155.826 155.826c17.387 17.39 45.576 17.39 62.964 0z" />
<glyph unicode="&#xe904;" glyph-name="arrows-diagonal" d="M931.641 960h-220.865c-26.612 0-48.188-21.575-48.188-48.188s21.576-48.188 48.188-48.188h104.526l-249.032-249.031c-18.819-18.819-18.819-49.33 0-68.149s49.328-18.819 68.151 0l249.031 249.032v-104.526c0-26.613 21.57-48.188 48.188-48.188 26.612 0 48.188 21.575 48.188 48.188v220.863c0 26.614-21.576 48.188-48.188 48.188zM413.556 393.729c-18.818 18.819-49.33 18.819-68.148 0l-249.031-249.032v104.526c0 26.612-21.574 48.188-48.188 48.188s-48.188-21.576-48.188-48.188v-220.865c0-26.612 21.575-48.188 48.188-48.188h220.863c26.613 0 48.188 21.576 48.188 48.188 0 26.618-21.575 48.188-48.188 48.188h-104.526l249.031 249.031c18.819 18.824 18.819 49.333 0 68.151z" />
<glyph unicode="&#xe905;" glyph-name="close" d="M210.745 749.255c24.994 24.993 65.516 24.993 90.51 0l210.745-210.746 210.746 210.746c24.992 24.993 65.517 24.993 90.509 0s24.992-65.516 0-90.51l-210.745-210.745 210.745-210.746c24.992-24.992 24.992-65.517 0-90.509s-65.517-24.992-90.509 0l-210.746 210.745-210.745-210.745c-24.994-24.992-65.516-24.992-90.51 0s-24.993 65.517 0 90.509l210.746 210.746-210.746 210.745c-24.993 24.994-24.993 65.516 0 90.51z" />
<glyph unicode="&#xe906;" glyph-name="home" d="M396.163 888.649c33.584 26.124 74.919 40.308 117.466 40.308 42.552 0 83.889-14.185 117.471-40.311zM631.101 888.646l289.578-225.233c-0.005 0.005 0.009-0.006 0 0 46.643-36.247 73.923-92.019 73.923-151.064v-390.982c0-41.146-16.347-80.612-45.442-109.708-29.1-29.096-68.561-45.442-109.712-45.442h-651.635c-41.149 0-80.612 16.347-109.709 45.442s-45.443 68.557-45.443 109.708v390.973c0 0.003 0-0.003 0 0-0.010 29.136 6.636 57.899 19.432 84.075 12.799 26.183 31.412 49.094 54.418 66.985l289.652 225.249c-0.002-0.002 0.002 0.002 0 0zM513.629 835.867c-21.844 0-43.069-7.283-60.312-20.698l-289.659-225.254c0 0 0 0 0 0-11.809-9.183-21.363-20.943-27.932-34.382s-9.981-28.202-9.974-43.161v-391.004c0-16.458 6.539-32.247 18.177-43.883 11.638-11.641 27.424-18.176 43.884-18.176h651.635c16.463 0 32.247 6.535 43.883 18.176 11.641 11.636 18.181 27.425 18.181 43.883v390.982c0 30.329-14.006 58.953-37.944 77.552l-289.62 225.265c-17.24 13.414-38.47 20.701-60.318 20.701zM769.071 309.132c13.275-22.011 6.195-50.618-15.816-63.898-68.897-41.556-156.346-60.979-241.296-60.979-84.947 0-172.376 19.423-241.226 60.989-22.007 13.289-29.076 41.896-15.791 63.902s41.896 29.077 63.903 15.793c51.050-30.822 120.829-47.593 193.114-47.593s142.099 16.77 193.215 47.602c22.011 13.275 50.618 6.195 63.898-15.816z" />
<glyph unicode="&#xe907;" glyph-name="dots" d="M30.944 538.96c19.813 19.813 46.686 30.944 74.707 30.944s54.893-11.131 74.706-30.944c19.813-19.813 30.944-46.686 30.944-74.707s-11.131-54.893-30.944-74.706c-19.813-19.813-46.686-30.944-74.706-30.944s-54.893 11.131-74.707 30.944c-19.813 19.813-30.944 46.686-30.944 74.706s11.131 54.893 30.944 74.707zM105.651 472.381c-2.156 0-4.223-0.856-5.747-2.381s-2.381-3.591-2.381-5.747c0-2.155 0.856-4.222 2.381-5.747s3.591-2.38 5.747-2.38c2.155 0 4.222 0.856 5.747 2.38s2.38 3.591 2.38 5.747c0 2.156-0.856 4.223-2.38 5.747s-3.591 2.381-5.747 2.381zM429.167 538.96c19.813 19.813 46.686 30.944 74.705 30.944 28.023 0 54.896-11.131 74.708-30.944s30.944-46.686 30.944-74.707c0-28.020-11.132-54.893-30.944-74.706s-46.685-30.944-74.708-30.944c-28.019 0-54.891 11.131-74.705 30.944s-30.944 46.686-30.944 74.706c0 28.021 11.131 54.893 30.944 74.707zM503.871 472.381c-2.155 0-4.223-0.856-5.744-2.381-1.526-1.524-2.38-3.591-2.38-5.747s0.853-4.222 2.38-5.747c1.521-1.524 3.589-2.38 5.744-2.38s4.223 0.856 5.749 2.38c1.521 1.524 2.38 3.591 2.38 5.747s-0.858 4.223-2.38 5.747c-1.526 1.524-3.594 2.381-5.749 2.381zM827.387 538.96c19.817 19.813 46.69 30.944 74.708 30.944s54.891-11.131 74.708-30.944c19.812-19.813 30.944-46.686 30.944-74.707s-11.132-54.893-30.944-74.706c-19.817-19.813-46.69-30.944-74.708-30.944s-54.891 11.131-74.708 30.944c-19.812 19.813-30.944 46.686-30.944 74.706s11.132 54.893 30.944 74.707zM902.095 472.381c-2.155 0-4.223-0.856-5.744-2.381-1.526-1.524-2.384-3.591-2.384-5.747s0.858-4.222 2.384-5.747c1.521-1.524 3.589-2.38 5.744-2.38s4.223 0.856 5.749 2.38c1.521 1.524 2.38 3.591 2.38 5.747s-0.858 4.223-2.38 5.747c-1.526 1.524-3.594 2.381-5.749 2.381z" />
<glyph unicode="&#xe908;" glyph-name="chevron-left" d="M783.149 938.577c28.564-28.564 28.564-74.875 0-103.44l-387.138-387.137 387.138-387.138c28.564-28.562 28.564-74.876 0-103.439s-74.876-28.562-103.44 0l-438.857 438.856c-28.564 28.564-28.564 74.876 0 103.44l438.857 438.857c28.564 28.564 74.876 28.564 103.44 0z" />
<glyph unicode="&#xe909;" glyph-name="no-eyes" d="M22.237 937.763c15.996 15.996 41.93 15.996 57.926 0l696.756-696.76c2.555-1.997 4.895-4.321 6.963-6.963l217.882-217.876c15.995-15.995 15.995-41.933 0-57.928s-41.933-15.995-57.928 0l-199.153 199.153c-71.444-38.2-151.46-58.061-232.82-57.549-202.917 0.051-368.033 114.166-495.786 327.086-7.783 12.969-7.783 29.176 0 42.148 56.687 94.479 120.741 169.745 192.721 224.202l-186.561 186.561c-15.996 15.996-15.996 41.93 0 57.926zM267.374 634.7c-60.106-43.292-116.294-105.043-168.057-186.7 115.367-182.047 253.060-266.24 412.683-266.24h0.271c59.305-0.394 117.76 12.237 171.31 36.736l-103.373 103.368c-20.762-11.233-44.175-17.275-68.209-17.28-38.022-0.005-74.489 15.094-101.38 41.974s-42.001 63.345-42.008 101.366c-0.005 24.052 6.035 47.482 17.279 68.259l-118.517 118.517zM450.631 451.443c-0.067-1.164-0.1-2.333-0.099-3.504 0.003-16.297 6.479-31.923 18.003-43.443s27.154-17.992 43.45-17.992c1.167 0 2.324 0.036 3.481 0.102l-64.835 64.837zM511.894 714.24c-28.528 0.074-56.99-2.741-84.951-8.401-22.172-4.489-43.784 9.846-48.273 32.018s9.847 43.784 32.019 48.272c33.363 6.754 67.324 10.115 101.362 10.031 0.020 0 0.036 0 0.056 0l-0.108-40.96v40.96c0.015 0 0.036 0 0.051 0 202.957-0.020 368.102-114.135 495.872-327.086 7.782-12.972 7.782-29.179 0-42.148-35.374-58.952-73.615-110.413-114.821-154.004-15.539-16.44-41.462-17.172-57.902-1.633s-17.172 41.462-1.633 57.902c31.734 33.577 62.147 73.119 91.116 118.812 4.362-6.883 8.694-13.908 12.995-21.076l35.123 21.074-35.123 21.074c-4.296-7.164-8.627-14.188-12.995-21.072-115.369 182.043-253.061 266.238-412.682 266.238h-0.106z" />
<glyph unicode="&#xe90a;" glyph-name="plus" d="M512 914.489c37.703 0 68.267-30.564 68.267-68.266v-329.956h329.958c37.7 0 68.267-30.564 68.267-68.267s-30.566-68.267-68.267-68.267h-329.958v-329.958c0-37.7-30.564-68.267-68.267-68.267s-68.267 30.566-68.267 68.267v329.958h-329.956c-37.702 0-68.266 30.564-68.266 68.267s30.564 68.267 68.266 68.267h329.956v329.956c0 37.702 30.564 68.266 68.267 68.266z" />
<glyph unicode="&#xe90b;" glyph-name="horizontal-settings" d="M513.143 901.968c29.872 29.872 70.389 46.655 112.634 46.655s82.762-16.782 112.634-46.655c18.876-18.875 32.523-41.999 40.016-67.123h188.683c25.134 0 45.511-20.376 45.511-45.511s-20.378-45.511-45.511-45.511h-188.683c-7.492-25.124-21.14-48.249-40.016-67.123-29.872-29.872-70.389-46.655-112.634-46.655s-82.762 16.782-112.634 46.655c-18.875 18.875-32.523 41.999-40.015 67.123h-416.24c-25.135 0-45.511 20.376-45.511 45.511s20.376 45.511 45.511 45.511h416.24c7.492 25.124 21.14 48.249 40.015 67.123zM625.778 857.6c-18.108 0-35.47-7.192-48.27-19.995-12.804-12.803-19.996-30.166-19.996-48.272s7.192-35.47 19.996-48.272c12.8-12.802 30.162-19.995 48.27-19.995s35.47 7.192 48.27 19.995c12.806 12.802 19.996 30.166 19.996 48.272s-7.191 35.469-19.996 48.272c-12.8 12.802-30.162 19.995-48.27 19.995zM171.81 560.634c29.872 29.872 70.388 46.655 112.634 46.655s82.762-16.782 112.634-46.655c18.875-18.875 32.523-41.999 40.015-67.123h530.017c25.134 0 45.511-20.376 45.511-45.511s-20.378-45.511-45.511-45.511h-530.017c-7.492-25.122-21.14-48.247-40.015-67.123-29.872-29.872-70.388-46.655-112.634-46.655s-82.762 16.782-112.634 46.655c-18.875 18.876-32.523 42.001-40.015 67.123h-74.906c-25.135 0-45.511 20.376-45.511 45.511s20.376 45.511 45.511 45.511h74.906c7.492 25.124 21.14 48.249 40.015 67.123zM284.444 516.267c-18.105 0-35.469-7.192-48.272-19.995s-19.995-30.166-19.995-48.272c0-18.105 7.192-35.469 19.995-48.272s30.166-19.995 48.272-19.995 35.469 7.191 48.272 19.995c12.802 12.803 19.995 30.166 19.995 48.272s-7.192 35.469-19.995 48.272c-12.803 12.802-30.166 19.995-48.272 19.995zM683.81 219.301c29.872 29.872 70.389 46.655 112.634 46.655s82.762-16.782 112.634-46.655c18.876-18.876 32.523-42.001 40.016-67.123h18.017c25.134 0 45.511-20.378 45.511-45.511s-20.378-45.511-45.511-45.511h-18.017c-7.492-25.122-21.14-48.247-40.016-67.123-29.872-29.872-70.389-46.655-112.634-46.655s-82.762 16.782-112.634 46.655c-18.876 18.876-32.523 42.001-40.016 67.123h-586.906c-25.135 0-45.511 20.378-45.511 45.511s20.376 45.511 45.511 45.511h586.906c7.492 25.122 21.14 48.247 40.016 67.123zM796.444 174.933c-18.108 0-35.47-7.191-48.27-19.996-12.806-12.8-19.996-30.162-19.996-48.27s7.191-35.47 19.996-48.27c12.8-12.806 30.162-19.996 48.27-19.996s35.47 7.191 48.27 19.996c12.806 12.8 19.996 30.162 19.996 48.27s-7.191 35.47-19.996 48.27c-12.8 12.806-30.162 19.996-48.27 19.996z" />
<glyph unicode="&#xe90c;" glyph-name="Vector-Stroke-13" d="M307.2 775.68c-5.432 0-10.641-2.158-14.481-5.999-3.841-3.841-5.999-9.050-5.999-14.481v-584.25l188.644 94.322c23.063 11.531 50.209 11.531 73.271 0l188.644-94.322v584.25c0 5.431-2.158 10.64-5.999 14.481s-9.050 5.999-14.481 5.999h-409.6zM176.866 885.534c34.567 34.567 81.449 53.986 130.334 53.986h409.6c48.885 0 95.767-19.419 130.334-53.986s53.986-81.449 53.986-130.334v-716.8c0-28.391-14.701-54.759-38.853-69.685-24.151-14.927-54.309-16.284-79.703-3.586l-270.564 135.282-270.564-135.282c-25.394-12.698-55.553-11.341-79.704 3.586s-38.852 41.294-38.852 69.685v716.8c0 48.885 19.419 95.768 53.986 130.334z" />
<glyph unicode="&#xe90d;" glyph-name="search" d="M297.552 897.116c52.608 21.791 108.993 33.007 165.935 33.007s113.326-11.216 165.937-33.007c52.605-21.791 100.409-53.73 140.669-93.995 40.266-40.265 72.209-88.065 93.998-140.673s33.007-108.993 33.007-165.935c0-56.943-11.218-113.326-33.007-165.937-15.963-38.537-37.37-74.49-63.505-106.798l180.207-180.207c17.772-17.772 17.772-46.592 0-64.364s-46.592-17.772-64.364 0l-180.207 180.207c-32.307-26.135-68.261-47.542-106.798-63.505-52.611-21.788-108.995-33.007-165.937-33.007s-113.327 11.218-165.935 33.007c-52.608 21.788-100.409 53.732-140.673 93.998-40.264 40.26-72.204 88.064-93.995 140.669-21.791 52.611-33.007 108.994-33.007 165.937s11.216 113.327 33.007 165.935c21.791 52.608 53.73 100.408 93.995 140.673s88.065 72.204 140.673 93.995zM463.487 839.1c-44.989 0-89.538-8.861-131.103-26.078s-79.331-42.451-111.143-74.263c-31.812-31.812-57.047-69.579-74.264-111.144s-26.078-86.113-26.078-131.102c0-44.989 8.862-89.538 26.078-131.104 17.217-41.563 42.452-79.332 74.264-111.144s69.579-57.048 111.143-74.263c41.565-17.215 86.113-26.078 131.103-26.078s89.538 8.863 131.104 26.078c41.563 17.215 79.332 42.45 111.144 74.263s57.048 69.581 74.263 111.144c17.215 41.565 26.078 86.114 26.078 131.104s-8.863 89.538-26.078 131.102c-17.215 41.565-42.45 79.332-74.263 111.144s-69.581 57.047-111.144 74.263c-41.566 17.217-86.114 26.078-131.104 26.078z" />
<glyph unicode="&#xe90e;" glyph-name="charts-historgram" d="M44.522 960c24.588 0 44.522-19.933 44.522-44.522v-368.894c47.413 4.761 81.84 17.101 108.534 32.502 34.899 20.134 59.937 47.352 84.874 78.524 4.414 5.518 8.96 11.361 13.657 17.399 20.169 25.925 43.133 55.444 70.52 78.266 36.773 30.645 82.449 50.899 145.371 50.899s108.597-20.254 145.372-50.899c27.385-22.822 50.35-52.341 70.518-78.267 4.697-6.038 9.243-11.881 13.659-17.399 24.937-31.171 49.976-58.39 84.872-78.524 34.415-19.854 81.68-34.622 153.057-34.622 24.589 0 44.522-19.933 44.522-44.52 0-24.589-19.932-44.522-44.522-44.522-84.449 0-147.563 17.693-197.552 46.534-49.508 28.563-82.904 66.272-109.911 100.029-6.206 7.759-11.932 15.089-17.35 22.020-19.514 24.973-34.99 44.773-54.299 60.865-21.66 18.051-47.407 30.261-88.367 30.261s-66.707-12.209-88.368-30.261c-19.31-16.092-34.783-35.893-54.298-60.866-5.416-6.931-11.144-14.26-17.351-22.020-27.005-33.756-60.401-71.465-109.909-100.029-40.789-23.53-90.311-39.642-153.031-44.776v-432.137h170.667v215.187c0 24.589 19.933 44.522 44.522 44.522s44.522-19.932 44.522-44.522v-215.187h118.725v371.013c0 24.589 19.932 44.522 44.522 44.522s44.522-19.932 44.522-44.522v-371.013h118.726v215.187c0 24.589 19.932 44.522 44.522 44.522s44.522-19.932 44.522-44.522v-215.187h118.722v111.304c0 24.589 19.932 44.522 44.522 44.522s44.522-19.932 44.522-44.522v-111.304h7.422c24.589 0 44.522-19.932 44.522-44.522s-19.932-44.522-44.522-44.522h-934.957c-24.589 0-44.522 19.932-44.522 44.522v934.957c0 24.589 19.933 44.522 44.522 44.522z" />
<glyph unicode="&#xe90f;" glyph-name="bookmark-fill" d="M256 960h512c33.948 0 66.505-13.486 90.51-37.49s37.49-56.562 37.49-90.51v-896l-384 192-384-192v896c0 33.948 13.486 66.505 37.49 90.51s56.562 37.49 90.51 37.49z" />
<glyph unicode="&#xe910;" glyph-name="eyes" d="M511.999 789.333c183.041 0 335.489-103.637 455.041-305.237l9.389-16.171 1.92-4.266 1.28-3.542 0.595-2.346 0.595-3.499 0.474-4.267v-4.693l-0.602-4.736c-0.282-1.584-0.646-3.151-1.107-4.693l-1.664-4.608-1.536-3.2-0.685-1.28c-117.926-206.336-268.8-314.878-450.345-319.96l-13.355-0.166c-187.563 0-342.912 108.755-463.701 320.168-3.682 6.445-5.618 13.74-5.618 21.163s1.937 14.717 5.618 21.163c120.789 211.413 276.139 320.17 463.701 320.17zM511.999 576c-33.948 0-66.505-13.485-90.51-37.491s-37.49-56.562-37.49-90.509c0-33.948 13.485-66.505 37.49-90.509s56.563-37.491 90.51-37.491c33.948 0 66.505 13.485 90.509 37.491s37.491 56.562 37.491 90.509c0 33.948-13.485 66.505-37.491 90.509s-56.562 37.491-90.509 37.491z" />
<glyph unicode="&#xe911;" glyph-name="bookmark" horiz-adv-x="796" d="M170.667 857.6c-18.105 0-35.469-7.192-48.272-19.995s-19.995-30.166-19.995-48.272v-722.807l275.469 137.734c12.813 6.411 27.894 6.411 40.706 0l275.469-137.734v722.807c0 18.105-7.191 35.469-19.996 48.272-12.8 12.802-30.162 19.995-48.27 19.995h-455.111zM58.032 901.968c29.872 29.872 70.388 46.655 112.634 46.655h455.111c42.246 0 82.762-16.782 112.634-46.655s46.655-70.388 46.655-112.634v-796.444c0-15.775-8.169-30.424-21.584-38.713-13.42-8.294-30.174-9.045-44.282-1.991l-320.978 160.489-320.98-160.489c-14.108-7.054-30.862-6.303-44.28 1.991-13.417 8.289-21.584 22.938-21.584 38.713v796.444c0 42.246 16.782 82.762 46.655 112.634z" />
<glyph unicode="&#xe912;" glyph-name="headset" horiz-adv-x="838" d="M418.909 851.773c-86.413 0-169.285-34.327-230.388-95.43s-95.43-143.976-95.43-230.388v-7.986c14.811 5.237 30.537 7.986 46.545 7.986h46.545c37.034 0 72.551-14.712 98.738-40.899 26.187-26.186 40.899-61.701 40.899-98.737v-139.636c0-37.032-14.712-72.55-40.899-98.737s-61.704-40.899-98.738-40.899h-46.545c-37.034 0-72.551 14.713-98.738 40.899s-40.899 61.705-40.899 98.737v279.273c0 111.102 44.135 217.653 122.696 296.214s185.112 122.695 296.213 122.695c111.099 0 217.651-44.135 296.215-122.695 78.559-78.561 122.694-185.112 122.694-296.214v-279.273c0-37.032-14.713-72.55-40.899-98.737-16.663-16.663-37.106-28.681-59.313-35.221-16.086-44.665-57.195-77.903-100.399-99.505-58.27-29.133-135.512-45.81-218.298-45.81-25.706 0-46.545 20.838-46.545 46.545s20.839 46.545 46.545 46.545c71.466 0 133.86 14.583 176.663 35.984 9.556 4.776 17.562 9.556 24.259 14.229-25.144 5.883-48.379 18.679-66.932 37.232-26.186 26.186-40.899 61.705-40.899 98.737v139.636c0 37.036 14.713 72.55 40.899 98.737 26.186 26.188 61.701 40.899 98.737 40.899h46.545c16.007 0 31.735-2.749 46.545-7.986v7.986c0 86.413-34.327 169.286-95.432 230.388-61.1 61.103-143.974 95.43-230.386 95.43zM744.727 386.318c0 12.344-4.906 24.185-13.633 32.912s-20.568 13.633-32.912 13.633h-46.545c-12.344 0-24.185-4.906-32.912-13.633s-13.633-20.568-13.633-32.912v-139.636c0-12.344 4.906-24.185 13.633-32.912s20.568-13.633 32.912-13.633h46.545c12.344 0 24.185 4.906 32.912 13.633s13.633 20.568 13.633 32.912v139.636zM93.091 386.318v-139.636c0-12.344 4.904-24.185 13.633-32.912s20.568-13.633 32.913-13.633h46.545c12.345 0 24.184 4.906 32.913 13.633s13.633 20.568 13.633 32.912v139.636c0 12.344-4.904 24.185-13.633 32.912s-20.568 13.633-32.913 13.633h-46.545c-12.345 0-24.184-4.906-32.913-13.633s-13.633-20.568-13.633-32.912z" />
<glyph unicode="&#xe913;" glyph-name="share" d="M682.667 746.667c0 70.692 57.31 128 128 128s128-57.308 128-128c0-70.692-57.31-128-128-128s-128 57.308-128 128zM810.667 960c-117.824 0-213.333-95.512-213.333-213.333 0-14.355 1.417-28.379 4.117-41.94l-215.984-130.682c-38.822 52.926-101.465 87.288-172.133 87.288-117.821 0-213.333-95.512-213.333-213.333 0-117.824 95.512-213.333 213.333-213.333 76.813 0 144.145 40.597 181.709 101.508l207.219-141.052c-3.226-14.75-4.928-30.071-4.928-45.79 0-117.824 95.509-213.333 213.333-213.333s213.333 95.509 213.333 213.333c0 117.824-95.509 213.333-213.333 213.333-71.181 0-134.217-34.863-172.971-88.439l-212.958 144.96c1.268 9.421 1.929 19.038 1.929 28.813 0 16.491-1.872 32.546-5.41 47.962l213.892 129.413c38.502-55.613 102.758-92.041 175.518-92.041 117.824 0 213.333 95.512 213.333 213.333s-95.509 213.333-213.333 213.333zM682.667 149.333c0 70.69 57.31 128 128 128s128-57.31 128-128c0-70.69-57.31-128-128-128s-128 57.31-128 128zM85.333 448c0 70.69 57.308 128 128 128s128-57.31 128-128c0-70.69-57.308-128-128-128s-128 57.31-128 128z" />
<glyph unicode="&#xe914;" glyph-name="chevron-bold-up" horiz-adv-x="1707" d="M756.789 885.877c53.32 53.32 139.767 53.32 193.087 0l682.667-682.668c53.32-53.318 53.32-139.767 0-193.087s-139.767-53.32-193.087 0l-586.122 586.124-586.124-586.124c-53.32-53.32-139.767-53.32-193.087 0s-53.32 139.769 0 193.087l682.666 682.668z" />
<glyph unicode="&#xe915;" glyph-name="alert" d="M442.721 865.697c20.369 11.46 43.346 17.481 66.718 17.481s46.352-6.020 66.719-17.481 37.443-27.974 49.577-47.95l0.159-0.266 359.808-600.618c11.868-20.567 18.145-43.889 18.212-67.635 0.061-23.752-6.088-47.104-17.848-67.738s-28.718-37.832-49.183-49.884c-20.465-12.047-43.73-18.529-67.476-18.801l-0.584-0.010-719.308 0.005c-23.748 0.271-47.012 6.758-67.478 18.806-20.466 12.052-37.422 29.251-49.181 49.884s-17.913 43.986-17.849 67.738c0.064 23.747 6.343 47.068 18.214 67.635l0.423 0.722 359.5 600.163c12.133 19.976 29.207 36.489 49.576 47.949zM509.439 780.777c-5.783 0-11.467-1.489-16.507-4.325-5.005-2.816-9.206-6.865-12.204-11.762l-358.975-599.289c-2.833-5.018-4.33-10.685-4.346-16.451-0.016-5.878 1.506-11.653 4.416-16.763 2.909-5.105 7.105-9.359 12.168-12.339 4.999-2.944 10.673-4.541 16.47-4.649h717.998c5.796 0.108 11.474 1.705 16.471 4.649 5.064 2.98 9.257 7.235 12.17 12.339 2.908 5.11 4.429 10.885 4.413 16.763-0.015 5.765-1.51 11.433-4.347 16.451l-359.020 599.292c-2.995 4.896-7.199 8.944-12.201 11.759-5.038 2.835-10.726 4.325-16.507 4.325zM512 627.2c28.278 0 51.2-22.923 51.2-51.2v-170.665c0-28.278-22.922-51.2-51.2-51.2s-51.2 22.922-51.2 51.2v170.665c0 28.277 22.923 51.2 51.2 51.2zM460.8 234.665c0 28.278 22.923 51.2 51.2 51.2h0.425c28.278 0 51.2-22.922 51.2-51.2s-22.922-51.2-51.2-51.2h-0.425c-28.277 0-51.2 22.922-51.2 51.2z" />
<glyph unicode="&#xe916;" glyph-name="star-filled" horiz-adv-x="983" d="M337.633 646.034l-261.325-37.888-4.628-0.942c-7.007-1.86-13.394-5.546-18.51-10.682s-8.777-11.538-10.61-18.552c-1.833-7.014-1.771-14.388 0.179-21.37s5.718-13.322 10.919-18.373l189.317-184.279-44.646-260.301-0.532-4.506c-0.429-7.246 1.076-14.475 4.36-20.951 3.285-6.472 8.231-11.956 14.331-15.892 6.101-3.932 13.138-6.177 20.39-6.496s14.46 1.294 20.883 4.674l233.718 122.88 233.185-122.88 4.096-1.884c6.762-2.662 14.107-3.478 21.287-2.363 7.184 1.114 13.939 4.116 19.575 8.704 5.636 4.583 9.949 10.588 12.501 17.392s3.248 14.164 2.015 21.324l-44.687 260.301 189.399 184.32 3.195 3.482c4.563 5.624 7.557 12.352 8.671 19.506 1.118 7.154 0.315 14.476-2.318 21.22-2.638 6.744-7.012 12.669-12.681 17.171-5.673 4.502-12.435 7.421-19.599 8.459l-261.325 37.929-116.818 236.749c-3.379 6.86-8.614 12.636-15.106 16.675s-13.988 6.18-21.635 6.18c-7.647 0-15.143-2.141-21.635-6.18s-11.727-9.815-15.106-16.675l-116.859-236.749z" />
<glyph unicode="&#xe917;" glyph-name="arrow-top-right" d="M113.778 755.2c-50.27 0-91.022 40.753-91.022 91.023s40.752 91.022 91.022 91.022h758.519c50.27 0 91.022-40.752 91.022-91.022v-758.518c0-50.27-40.752-91.022-91.022-91.022s-91.022 40.752-91.022 91.022v538.771l-603.134-603.134c-35.546-35.546-93.179-35.546-128.725 0s-35.546 93.178 0 128.725l603.134 603.134h-538.772z" />
<glyph unicode="&#xe918;" glyph-name="clear" horiz-adv-x="989" d="M189.197 562.695c27.262 0 49.362 22.101 49.362 49.363s-22.1 49.361-49.362 49.361c-27.261 0-49.361-22.1-49.361-49.361s22.1-49.363 49.361-49.363zM54.821 410.967c27.262 0 49.362 22.097 49.362 49.36 0 27.26-22.1 49.36-49.362 49.36-27.261 0-49.361-22.101-49.361-49.36 0-27.263 22.1-49.36 49.361-49.36zM908.532 935.819c-55.872 28.94-124.624 7.107-153.565-48.764l-126.397-244.026c-0.678-1.308-1.261-2.641-1.755-3.988-61.913 2.123-123.244-25.227-164.606-73.638-48.735-57.033-108.692-119.275-159.927-151.058-73.045-45.314-133.432-61.645-170.933-67.443-21.932-3.39-39.734-17.51-48.406-35.822-9.058-19.128-8.375-44.191 9.227-63.587 38.267-42.168 112.872-111.238 249.713-198.268 94.779-60.282 179.753-93.622 225.487-109.067 35.049-11.84 72.506 1.698 92.616 31.822 25.427 38.079 70.080 109.889 108.42 197.268 28.365 64.646 52.8 131.273 76.186 197.787 19.728 56.108 10.854 115.295-19.138 162.074l131.722 252.916c29.113 55.895 7.316 124.807-48.644 153.792zM775.775 581.254l120.963 232.252c11.698 22.462 2.941 50.155-19.548 61.803-22.454 11.629-50.084 2.856-61.712-19.597l-120.073-231.816c4.018-1.706 8.008-3.559 11.963-5.564l43.877-22.247c8.64-4.378 16.825-9.347 24.53-14.83zM780.302 389.639c-4.855-13.806-9.972-28.171-15.279-42.796l-276.533 145.118c8.902 9.926 17.443 19.717 25.526 29.177 41.158 48.167 108.717 63.7 162.537 36.416l43.873-22.249c54.057-27.408 79.618-89.515 59.876-145.666zM338.205 356.437c33.624 20.858 68.711 51.341 101.635 84.102l0.441-0.237 300.735-157.82c-11.568-30.081-23.457-59.512-35.014-85.85-36.204-82.513-78.583-150.712-102.69-186.813-3.432-5.145-9.015-6.829-14.135-5.099-20.113 6.794-48.848 17.479-83.103 32.983 15.9 16.762 38.961 44.163 61.059 81.818 9.551 16.267 4.032 36.92-12.327 46.129-16.356 9.205-37.358 3.482-46.906-12.789-17.765-30.261-39.459-60.070-66.062-83.322-20.289 10.95-41.557 23.301-63.386 37.185-17.747 11.285-34.365 22.231-49.922 32.814 8.095 5.445 16.971 12.119 26.501 20.289 14.329 12.292 15.752 33.534 3.178 47.454-12.575 13.916-34.386 15.236-48.716 2.945-21.092-18.089-35.822-24.971-41.76-27.295-54.257 40.769-90.608 74.236-114.134 98.643 45.579 8.478 109.963 28.555 184.606 74.861z" />
<glyph unicode="&#xe919;" glyph-name="external-window" d="M637.156 903.111c0 25.135 20.378 45.511 45.511 45.511h284.444c25.134 0 45.511-20.376 45.511-45.511v-284.445c0-25.135-20.378-45.511-45.511-45.511s-45.511 20.376-45.511 45.511v174.571l-491.197-491.197c-17.773-17.772-46.589-17.772-64.362 0s-17.773 46.592 0 64.364l491.195 491.196h-174.569c-25.134 0-45.511 20.376-45.511 45.511zM58.032 731.301c29.872 29.872 70.388 46.655 112.634 46.655h284.444c25.135 0 45.511-20.376 45.511-45.511s-20.376-45.511-45.511-45.511h-284.444c-18.105 0-35.47-7.192-48.272-19.995s-19.995-30.166-19.995-48.272v-512c0-18.108 7.192-35.47 19.995-48.27 12.802-12.806 30.166-19.996 48.272-19.996h512c18.108 0 35.47 7.191 48.27 19.996 12.806 12.8 19.996 30.162 19.996 48.27v284.444c0 25.135 20.378 45.511 45.511 45.511s45.511-20.376 45.511-45.511v-284.444c0-42.246-16.782-82.762-46.655-112.634s-70.389-46.655-112.634-46.655h-512c-42.246 0-82.762 16.782-112.634 46.655s-46.655 70.389-46.655 112.634v512c0 42.246 16.782 82.762 46.655 112.634z" />
<glyph unicode="&#xe91a;" glyph-name="file" horiz-adv-x="819" d="M153.6 857.6c-13.579 0-26.602-5.394-36.204-14.996s-14.996-22.625-14.996-36.204v-716.8c0-13.578 5.394-26.604 14.996-36.204s22.625-14.996 36.204-14.996h512c13.578 0 26.604 5.396 36.204 14.996s14.996 22.625 14.996 36.204v512h-153.6c-27.156 0-53.204 10.788-72.408 29.992s-29.992 45.25-29.992 72.408v153.6h-307.2zM563.2 785.192l81.193-81.192h-81.193v81.192zM44.988 915.012c28.806 28.806 67.874 44.988 108.612 44.988h358.4c13.578 0 26.604-5.394 36.204-14.996l256-256c9.6-9.602 14.996-22.625 14.996-36.204v-563.2c0-40.74-16.184-79.805-44.989-108.611s-67.871-44.989-108.611-44.989h-512c-40.737 0-79.806 16.184-108.612 44.989s-44.988 67.871-44.988 108.611v716.8c0 40.737 16.183 79.806 44.988 108.612z" />
<glyph unicode="&#xe91b;" glyph-name="hour-process" d="M316.066 921.026c62.118 25.73 128.697 38.974 195.934 38.974 67.236 0 133.816-13.243 195.932-38.974 62.121-25.73 118.564-63.444 166.108-110.988s85.253-103.986 110.986-166.105c25.728-62.118 38.973-128.697 38.973-195.934s-13.245-133.816-38.973-195.932c-25.733-62.121-63.442-118.564-110.986-166.108s-103.987-85.253-166.108-110.986c-62.116-25.728-128.696-38.973-195.932-38.973s-133.815 13.245-195.934 38.973c-62.119 25.733-118.561 63.442-166.105 110.986s-85.257 103.987-110.988 166.108c-25.73 62.116-38.974 128.696-38.974 195.932s13.243 133.815 38.974 195.934 63.444 118.561 110.988 166.105c47.544 47.543 103.986 85.257 166.105 110.988zM512 857.6c-53.789 0-107.052-10.595-156.747-31.179s-94.849-50.756-132.883-88.791c-38.035-38.034-68.206-83.189-88.791-132.883s-31.179-102.958-31.179-156.747c0-53.791 10.595-107.054 31.179-156.749s50.756-94.848 88.791-132.884c38.034-38.031 83.189-68.204 132.883-88.786 49.695-20.588 102.958-31.181 156.747-31.181 53.791 0 107.054 10.593 156.749 31.181 49.695 20.582 94.848 50.755 132.884 88.786 38.031 38.036 68.204 83.19 88.786 132.884 20.588 49.695 31.181 102.958 31.181 156.749 0 53.79-10.593 107.052-31.181 156.747-20.582 49.695-50.755 94.849-88.786 132.883-38.036 38.035-83.19 68.206-132.884 88.791s-102.958 31.179-156.749 31.179zM512 755.2c28.278 0 51.2-22.923 51.2-51.2v-86.898l8.596 12.898c15.688 23.528 47.478 29.885 71.004 14.2s29.885-47.474 14.203-71.002l-102.4-153.6c-12.518-18.775-35.845-27.141-57.44-20.603s-36.363 26.44-36.363 49.004v256c0 28.277 22.923 51.2 51.2 51.2z" />
<glyph unicode="&#xe91c;" glyph-name="filter" d="M160.721 824.879c-10.193-2.281-23.133-14.895-25.879-25.135-1.396-5.306-1.815-24.902-1.35-66.56 0.652-55.994 0.884-59.671 4.608-70.982 9.775-29.882 7.401-27.136 112.221-132.329l96.116-96.489 0.047-144.151c0-100.166 0.559-146.246 1.862-150.993 1.21-4.236 4.887-9.775 9.821-14.662l7.913-7.866 134.004-44.637c73.728-24.529 136.192-44.637 138.892-44.637 14.848 0 31.185 11.45 35.84 25.088 2.42 7.075 2.746 27.601 2.793 184.739l0.047 176.733 93.836 103.145c88.204 96.908 102.353 113.757 109.708 130.7 8.006 18.385 8.471 22.9 9.216 85.737 0.652 52.689 0.372 61.254-2.095 68.655-4.418 11.83-14.23 20.721-26.362 23.775l-0.262 0.056c-11.217 2.374-690.223 2.188-700.975-0.186zM815.802 717.824v-34.025l-5.585-10.38c-4.049-7.633-31.139-38.54-101.935-116.317-53.062-58.228-98.351-109.103-100.724-113.059l-4.236-7.121-0.465-160.721-0.465-160.675-180.829 60.23v138.473c0 120.087-0.372 139.45-2.653 145.92-2.188 6.284-18.618 23.552-102.214 107.334-67.025 67.165-100.911 102.353-103.61 107.52-3.77 7.168-4.049 9.821-4.561 42.217l-0.559 34.583h607.837v-33.978z" />
<glyph unicode="&#xe91e;" glyph-name="chevron-down1" d="M986.94 709.605c-26.658 26.66-69.888 26.66-96.546 0l-378.394-378.395-378.395 378.395c-26.659 26.66-69.883 26.66-96.543 0s-26.66-69.884 0-96.544l426.666-426.667c26.66-26.659 69.885-26.659 96.544 0l426.668 426.667c26.658 26.66 26.658 69.885 0 96.544z" />
<glyph unicode="&#xe91f;" glyph-name="chevrons-up-down" horiz-adv-x="614" d="M307.2 941.725c13.579 0 26.602-5.394 36.204-14.996l255.999-256c19.994-19.995 19.994-52.413 0-72.408s-52.413-19.995-72.407 0l-219.796 219.796-219.796-219.796c-19.995-19.995-52.413-19.995-72.408 0s-19.995 52.413 0 72.408l256 256c9.602 9.602 22.625 14.996 36.204 14.996zM14.996 297.702c19.995 19.999 52.413 19.999 72.408 0l219.796-219.796 219.796 219.796c19.994 19.999 52.413 19.999 72.407 0 19.994-19.994 19.994-52.413 0-72.407l-255.999-256c-9.602-9.6-22.625-14.996-36.204-14.996s-26.602 5.396-36.204 14.996l-256 256c-19.995 19.994-19.995 52.413 0 72.407z" />
<glyph unicode="&#xe920;" glyph-name="chevron-bold-down" horiz-adv-x="1707" d="M74.123 885.877c53.32 53.32 139.767 53.32 193.087 0l586.124-586.123 586.122 586.123c53.32 53.32 139.767 53.32 193.087 0s53.32-139.768 0-193.088l-682.667-682.667c-53.32-53.32-139.767-53.32-193.087 0l-682.666 682.667c-53.32 53.32-53.32 139.768 0 193.088z" />
</font>
</defs>
</svg>
